<svg id="Capa_1" enable-background="new 0 0 512 512" height="512" viewBox="0 0 512 512" width="512" xmlns="http://www.w3.org/2000/svg"><g><path d="m510.729 403.891-36.986-221.826h-85.978l-44.746-182.065h-174.038l-44.747 182.064h-85.978l-36.985 221.827c-4.496 26.968 3.061 54.4 20.735 75.265 17.683 20.872 43.516 32.844 70.878 32.844h326.232c27.362 0 53.195-11.972 70.878-32.845 17.674-20.864 25.232-48.297 20.735-75.264zm-196.267-74.206c-6.687-26.038-30.362-45.338-58.462-45.338s-51.774 19.3-58.462 45.338h-31.557l-85.558-117.62h351.153l-85.558 117.62zm-28.113 15c0 16.729-13.615 30.339-30.35 30.339s-30.349-13.61-30.349-30.339 13.614-30.338 30.349-30.338 30.35 13.609 30.35 30.338zm-93.847-314.685h126.997l37.373 152.064h-201.744zm274.6 429.765c-11.971 14.131-29.461 22.235-47.986 22.235h-326.232c-18.525 0-36.015-8.104-47.986-22.235-11.962-14.121-17.077-32.688-14.034-50.94l29.012-174.006 90.829 124.867h46.833c6.687 26.038 30.362 45.339 58.462 45.339s51.775-19.301 58.462-45.339h46.833l90.829-124.867 29.012 174.006c3.043 18.251-2.072 36.819-14.034 50.94z"/></g></svg>