<?xml version="1.0" encoding="iso-8859-1"?>
<!-- Generator: Adobe Illustrator 19.0.0, SVG Export Plug-In . SVG Version: 6.00 Build 0)  -->
<svg version="1.1" id="Capa_1" xmlns="http://www.w3.org/2000/svg" xmlns:xlink="http://www.w3.org/1999/xlink" x="0px" y="0px"
	 viewBox="0 0 512.002 512.002" style="enable-background:new 0 0 512.002 512.002;" xml:space="preserve">
<g>
	<g>
		<path d="M500.609,161.212c-1.529-3.866,0.828-0.474-45.478-53.508c-2.733-3.124-7.482-3.444-10.608-0.713
			c-3.126,2.733-3.446,7.482-0.713,10.608l20.945,23.964l-64.695,50.445c-4.912-0.377-9.513,2.766-10.755,7.751l-0.228,0.914
			l0.072,0.018c-3.19,12.036-6.424,38.024-7.754,52.173c-11.12,118.92,16.246,204.99,15.701,211.059
			c-0.327,3.642-2.358,7.028-5.78,8.753c-7.761,3.505-18.605,7.189-26.727,9.641c-3.981,1.179-6.252,5.362-5.072,9.344
			c1.174,3.959,5.337,6.255,9.344,5.072c9.078-2.744,23.651-7.845,29.037-10.538c10.969-5.391,16.435-17.897,13.49-29.732
			c-20.96-84.16-22.078-175.126-9.413-243.758c10.501,12.183,10.211,11.919,11.373,12.975c6.224,5.616,15.695,6.515,23.117,1.051
			c0.1-0.071,59.997-47.092,61.534-48.95C501.612,173.452,502.965,167.164,500.609,161.212z M486.211,168.406
			c-62.228,49.014-59.013,46.866-60.483,46.944c-2.696,0.165-2.722-1.879-13.494-13.769l62.43-48.678
			c12.653,14.477,12.034,13.586,12.088,14.253C486.736,167.535,486.606,168.094,486.211,168.406z"/>
	</g>
</g>
<g>
	<g>
		<circle cx="256.121" cy="140.735" r="9.647"/>
	</g>
</g>
<g>
	<g>
		<circle cx="256.121" cy="175.503" r="9.647"/>
	</g>
</g>
<g>
	<g>
		<path d="M338.247,496.614c-0.729-4.089-4.632-6.814-8.721-6.079c-42.077,7.517-71.938,5.954-91.362,5.927v0.002
			c-43.16-2.313-67.032-7.275-90.822-14.237c-25.838-7.68-31.5-10.451-32.201-18.306c-0.547-6.084,21.332-76.721,18.172-168.328
			c-0.098-4.129-3.504-7.373-7.648-7.338c-4.151,0.073-7.457,3.498-7.384,7.649l0.006,0.207
			c1.264,54.581-4.654,109.015-17.441,160.353c-2.813,11.305,1.739,24.912,16.006,30.837
			c38.344,15.634,79.315,22.495,120.534,24.177v-0.001c20.79,1.434,59.907,0.091,94.783-6.142
			C336.257,504.606,338.977,500.701,338.247,496.614z"/>
	</g>
</g>
<g>
	<g>
		<path d="M432.045,81.29c-5.588-5.506-13.987-19.778-34.489-28.23l-43.389-17.881c-18.111-24.322-19.823-28.072-28.03-32.187
			c-12.25-4.665,3.822-1.876-105.933-2.868c-24.22-0.217-28.475-0.742-36.846,4.609c-8.219,5.251-9,9.427-23.726,28.346
			l-1.563,2.099L114.68,53.061c-10.041,4.138-19.124,10.647-26.268,18.822C8.945,162.859,8.7,159.687,10.726,170.328
			c0.663,3.672,2.613,7.112,5.993,9.888c63.405,49.955,60.166,48.083,64.895,49.448c14.687,4.302,20.68-8.706,28.645-16.957
			c2.845,15.424,4.919,32.483,6.222,48.591c0.319,3.932,3.608,6.912,7.485,6.911c4.415,0,7.854-3.762,7.501-8.125
			c-1.4-17.233-4.703-44.901-8.31-59.417c-0.137-0.27-0.787-6.17-7.013-8.186c-1.31-0.423-2.654-0.571-3.969-0.471l-64.696-50.445
			l52.253-59.787c13.557-15.514,27.833-16.469,60.485-31.222l46.492,64.784c2.728,3.802,6.634,6.266,10.998,6.937
			c10.089,1.537,12.754-4.627,38.394-22.53c26.369,18.577,28.208,23.467,36.346,23.467c4.971,0,9.578-2.657,12.211-6.387
			l47.367-66.266l39.799,16.401c16.572,6.832,23.219,18.551,28.9,24.224c2.734,3.126,7.484,3.445,10.608,0.713
			C434.457,89.165,434.777,84.416,432.045,81.29z M100,201.58c-11.712,13.584-12.023,15.325-15.361,13.008
			c-60.445-47.623-60.254-46.601-58.808-48.254l11.739-13.431L100,201.58z M340.074,41.427c-0.039-0.052-0.172-0.23-0.211-0.282
			C339.885,41.175,339.946,41.256,340.074,41.427C340.074,41.427,340.074,41.427,340.074,41.427z M308.338,15.242l-19.322,23.432
			h-65.798l-19.459-23.598C216.602,14.98,242.338,15.689,308.338,15.242z M219.989,107.414c-0.986-0.152,1.386,2.323-47.821-65.995
			c6.299-8.41,15.108-20.457,16.058-21.418c52.056,63.009,56.901,68.874,57.054,69.059c-0.036-0.044-0.27-0.327-0.006-0.007
			C219.487,108.061,220.615,107.506,219.989,107.414z M235.616,53.708h41.003L256.117,78.57L235.616,53.708z M292.439,108.044
			l-25.495-18.972c0.108-0.131,56.952-68.943,57.061-69.075c13.598,18.136,15.894,21.198,16.068,21.43
			C290.276,111.078,292.599,107.872,292.439,108.044z"/>
	</g>
</g>
<g>
</g>
<g>
</g>
<g>
</g>
<g>
</g>
<g>
</g>
<g>
</g>
<g>
</g>
<g>
</g>
<g>
</g>
<g>
</g>
<g>
</g>
<g>
</g>
<g>
</g>
<g>
</g>
<g>
</g>
</svg>
