<svg width="43" height="24" viewBox="0 0 43 24" fill="none" xmlns="http://www.w3.org/2000/svg">
<rect width="42.4615" height="24" fill="#006FCF"/>
<path d="M34.1234 10.5282H36.6697V4.61548H33.8987V5.43876L33.3744 4.61548H30.9779V5.6633L30.5286 4.61548H26.1099C25.9602 4.61548 25.8104 4.69032 25.6606 4.69032C25.5108 4.69032 25.4359 4.76517 25.2861 4.84001C25.1364 4.91485 25.0615 4.91485 24.9117 4.9897V4.61548H12.255L11.8805 5.58845L11.5061 4.61548H8.5104V5.6633L8.06105 4.61548H5.66451L4.61603 7.16018V10.5282H6.33854L6.6381 9.70488H7.23724L7.5368 10.5282H20.7177V9.77972L21.242 10.5282H24.9117V10.0791C24.9866 10.1539 25.1364 10.1539 25.2112 10.2288C25.2861 10.3036 25.4359 10.3036 25.5108 10.3785C25.6606 10.4533 25.8104 10.4533 25.9602 10.4533H28.6563L28.9558 9.63003H29.555L29.8545 10.4533H33.5242V9.70488L34.1234 10.5282ZM38.2424 18.0126V12.4741H17.6472L17.1229 13.2225L16.5987 12.4741H10.6074V18.3868H16.5987L17.1229 17.6383L17.6472 18.3868H21.3918V17.1144H21.242C21.7662 17.1144 22.2156 17.0396 22.59 16.8899V18.4616H25.2861V17.7132L25.8104 18.4616H36.9692C37.4186 18.3119 37.8679 18.2371 38.2424 18.0126Z" fill="white"/>
<path d="M36.9681 16.6459H34.946V17.4721H36.8932C37.717 17.4721 38.2412 16.9463 38.2412 16.1952C38.2412 15.444 37.7919 15.0685 37.043 15.0685H36.1443C35.9196 15.0685 35.7698 14.9182 35.7698 14.6929C35.7698 14.4675 35.9196 14.3173 36.1443 14.3173H37.8668L38.2412 13.4911H36.2192C35.3954 13.4911 34.8711 14.0169 34.8711 14.6929C34.8711 15.444 35.3205 15.8196 36.0694 15.8196H36.9681C37.1928 15.8196 37.3425 15.9698 37.3425 16.1952C37.4174 16.4956 37.2677 16.6459 36.9681 16.6459ZM33.2984 16.6459H31.2763V17.4721H33.2235C34.0473 17.4721 34.5715 16.9463 34.5715 16.1952C34.5715 15.444 34.1222 15.0685 33.3733 15.0685H32.4746C32.2499 15.0685 32.1001 14.9182 32.1001 14.6929C32.1001 14.4675 32.2499 14.3173 32.4746 14.3173H34.1971L34.5715 13.4911H32.5495C31.7257 13.4911 31.2014 14.0169 31.2014 14.6929C31.2014 15.444 31.6508 15.8196 32.3997 15.8196H33.2984C33.5231 15.8196 33.6728 15.9698 33.6728 16.1952C33.7477 16.4956 33.5231 16.6459 33.2984 16.6459ZM30.6772 14.2422V13.4159H27.5317V17.397H30.6772V16.5708H28.4304V15.7445H30.6023V14.9182H28.4304V14.1671H30.6772V14.2422ZM25.5845 14.2422C25.959 14.2422 26.1088 14.4675 26.1088 14.6929C26.1088 14.9182 25.959 15.1436 25.5845 15.1436H24.4612V14.1671L25.5845 14.2422ZM24.4612 15.9698H24.9105L26.1088 17.397H27.2322L25.8841 15.8947C26.5581 15.7445 26.9326 15.2938 26.9326 14.6929C26.9326 13.9417 26.4084 13.4159 25.5845 13.4159H23.4876V17.397H24.3863L24.4612 15.9698ZM22.0646 14.768C22.0646 15.0685 21.9149 15.2938 21.5404 15.2938H20.3421V14.2422H21.4655C21.84 14.2422 22.0646 14.4675 22.0646 14.768ZM19.4434 13.4159V17.397H20.3421V16.045H21.5404C22.3642 16.045 22.9633 15.5192 22.9633 14.6929C22.9633 13.9417 22.4391 13.3408 21.6153 13.3408L19.4434 13.4159ZM18.0954 17.397H19.2187L17.646 15.3689L19.2187 13.4159H18.0954L17.1218 14.6929L16.1482 13.4159H15.0248L16.5975 15.3689L15.0248 17.3219H16.1482L17.1218 16.045L18.0954 17.397ZM14.7252 14.2422V13.4159H11.5798V17.397H14.7252V16.5708H12.4785V15.7445H14.6504V14.9182H12.4785V14.1671H14.7252V14.2422ZM32.9239 7.18141L34.4967 9.58509H35.62V5.604H34.7213V8.23302L34.4967 7.85745L33.0737 5.604H31.8754V9.58509H32.7741V6.88095L32.9239 7.18141ZM29.0296 7.1063L29.3291 6.28004L29.6287 7.1063L30.0032 8.00768H28.6551L29.0296 7.1063ZM30.6023 9.58509H31.5759L29.8534 5.604H28.6551L26.9326 9.58509H27.9062L28.2806 8.75882H30.2278L30.6023 9.58509ZM26.4084 9.58509L26.7828 8.75882H26.5581C25.8841 8.75882 25.5097 8.30814 25.5097 7.6321V7.55699C25.5097 6.88095 25.8841 6.43027 26.5581 6.43027H27.5317V5.604H26.4832C25.285 5.604 24.611 6.43027 24.611 7.55699V7.6321C24.611 8.83394 25.285 9.58509 26.4084 9.58509ZM23.0382 9.58509H23.9369V5.67912H23.0382V9.58509ZM21.091 6.43027C21.4655 6.43027 21.6153 6.65561 21.6153 6.88095C21.6153 7.1063 21.4655 7.33164 21.091 7.33164H19.9677V6.35515L21.091 6.43027ZM19.9677 8.15791H20.417L21.6153 9.58509H22.7387L21.3906 8.08279C22.0646 7.93256 22.4391 7.48187 22.4391 6.88095C22.4391 6.12981 21.9149 5.604 21.091 5.604H18.9941V9.58509H19.8928L19.9677 8.15791ZM18.32 6.43027V5.604H15.1746V9.58509H18.32V8.75882H16.0733V7.93256H18.2452V7.1063H16.0733V6.35515H18.32V6.43027ZM11.5049 9.58509H12.3287L13.4521 6.35515V9.58509H14.3508V5.604H12.853L11.9543 8.30813L11.0556 5.604H9.55772V9.58509H10.4564V6.35515L11.5049 9.58509ZM6.63694 7.1063L6.93651 6.28004L7.23608 7.1063L7.61054 8.00768H6.26249L6.63694 7.1063ZM8.20967 9.58509H9.18326L7.46075 5.604H6.33738L4.61487 9.58509H5.58846L5.96292 8.75882H7.9101L8.20967 9.58509Z" fill="#006FCF"/>
</svg>
