<svg viewBox="0 0 1366 408" fill="none" xmlns="http://www.w3.org/2000/svg">
<rect fill="#1F1F1F"/>
<path d="M1366 63C1364.61 63.0073 1363.22 63.0316 1361.83 63.0681H1361.82C1355.65 63.2382 1349.54 63.7316 1343.94 64.5921C1329.22 66.8527 1312.07 69.5581 1298.18 74.9907L1298.18 74.998C1297.87 75.105 1297.57 75.2265 1297.28 75.3481C1273.91 84.7866 1249.21 90.3529 1227.74 103.807C1206.58 117.059 1187.02 131.114 1165.52 143.792C1137.6 160.268 1113.06 178.207 1090.16 201.041C1070.93 220.21 1055.39 251.989 1047.9 277.28C1046.96 280.484 1046.11 283.705 1045.35 286.926C1038.83 314.607 1038.91 343.007 1039.03 371.449C1039.09 384.045 1041.93 395.919 1043.79 408H1366V63Z" fill="#2B2B2B"/>
<path d="M448 -6.21875e-06C431.698 19.804 416.312 36.9825 414.013 39.2022C402.063 50.7482 389.2 62.6133 374.171 69.9209C362.401 75.6506 350.291 81.3247 338.156 86.1977C315.545 95.2846 292.992 103.962 270.804 114.142C246.216 125.431 223.948 141.968 201.586 157.124C188.706 165.854 175.771 174.501 163.45 184.011C152.137 192.723 139.406 199.323 128.218 208.174C120.442 214.313 111.168 217.66 102.05 221.427C79.2893 230.826 55.0622 234.336 30.6479 236.209C19.9593 237.034 10.0299 237.26 0 236.666V-6.21875e-06H448Z" fill="#2B2B2B"/>
</svg>
