<svg width="34" height="34" viewBox="0 0 34 34" fill="none" xmlns="http://www.w3.org/2000/svg">
<path d="M24.5 2H9.5C5.35786 2 2 5.35786 2 9.5V24.5C2 28.6421 5.35786 32 9.5 32H24.5C28.6421 32 32 28.6421 32 24.5V9.5C32 5.35786 28.6421 2 24.5 2Z" stroke="#111111" stroke-width="2.2" stroke-linecap="round" stroke-linejoin="round"/>
<path d="M23 16.0547C23.1851 17.3031 22.9719 18.578 22.3907 19.6982C21.8094 20.8184 20.8897 21.7268 19.7625 22.2942C18.6352 22.8616 17.3577 23.0591 16.1117 22.8586C14.8657 22.6581 13.7147 22.0698 12.8223 21.1775C11.9299 20.2851 11.3416 19.134 11.1411 17.888C10.9406 16.642 11.1381 15.3646 11.7055 14.2373C12.2729 13.11 13.1813 12.1903 14.3015 11.6091C15.4217 11.0278 16.6966 10.8146 17.945 10.9997C19.2184 11.1885 20.3973 11.7819 21.3076 12.6922C22.2178 13.6024 22.8112 14.7813 23 16.0547Z" stroke="#111111" stroke-width="2.2" stroke-linecap="round" stroke-linejoin="round"/>
</svg>
