<svg width="43" height="24" viewBox="0 0 43 24" fill="none" xmlns="http://www.w3.org/2000/svg">
<rect width="42.4615" height="24" fill="#0074C8"/>
<path d="M10.4368 8.30811H8.80792C8.80792 9.64478 8.19436 10.8646 7.12794 11.6681L6.48517 12.1501L8.98322 15.5539H11.0357L8.73488 12.4204C9.82321 11.3394 10.4368 9.87852 10.4368 8.30811Z" fill="white"/>
<path d="M6.28097 8.30811H4.6156V15.5539H6.28097V8.30811Z" fill="white"/>
<path d="M13.0882 8.30811H11.5178V15.5539H13.0882V8.30811Z" fill="white"/>
<path d="M26.8643 10.4041C26.2653 10.4041 25.6956 10.5867 25.3158 11.1053V10.5428H23.8257V15.5536H25.3377V12.924C25.3377 12.1644 25.849 11.7919 26.4625 11.7919C27.1199 11.7919 27.4997 12.1863 27.4997 12.9167V15.5609H28.9971V12.3689C28.9971 11.2002 28.0695 10.4041 26.8643 10.4041Z" fill="white"/>
<path d="M17.836 10.5428V10.8642C17.4123 10.5721 16.901 10.4041 16.3459 10.4041C14.8851 10.4041 13.7018 11.5873 13.7018 13.0482C13.7018 14.509 14.8851 15.6923 16.3459 15.6923C16.901 15.6923 17.4123 15.5243 17.836 15.2322V15.5536H19.3334V10.5428H17.836ZM16.4701 14.3337C15.7178 14.3337 15.1115 13.7567 15.1115 13.0482C15.1115 12.3397 15.7178 11.7626 16.4701 11.7626C17.2224 11.7626 17.8287 12.3397 17.8287 13.0482C17.8287 13.7567 17.2224 14.3337 16.4701 14.3337Z" fill="white"/>
<path d="M21.6565 11.1933V10.5432H20.1226V15.5539H21.6638V13.2166C21.6638 12.4277 22.5184 12.0041 23.11 12.0041C23.1173 12.0041 23.1246 12.0041 23.1246 12.0041V10.5432C22.5184 10.5432 21.9559 10.8062 21.6565 11.1933Z" fill="white"/>
<path d="M33.6568 10.5428V10.8642C33.2331 10.5721 32.7218 10.4041 32.1667 10.4041C30.7059 10.4041 29.5226 11.5873 29.5226 13.0482C29.5226 14.509 30.7059 15.6923 32.1667 15.6923C32.7218 15.6923 33.2331 15.5243 33.6568 15.2322V15.5536H35.1542V10.5428H33.6568ZM32.2909 14.3337C31.5386 14.3337 30.9323 13.7567 30.9323 13.0482C30.9323 12.3397 31.5386 11.7626 32.2909 11.7626C33.0432 11.7626 33.6495 12.3397 33.6495 13.0482C33.6568 13.7567 33.0432 14.3337 32.2909 14.3337Z" fill="white"/>
<path d="M36.3152 10.6894C36.3152 10.6163 36.2641 10.5725 36.1838 10.5725H36.045V10.9523H36.1107V10.8136H36.1838L36.2422 10.9523H36.3152L36.2495 10.7989C36.2933 10.777 36.3152 10.7405 36.3152 10.6894ZM36.1838 10.7478H36.1107V10.6309H36.1838C36.2276 10.6309 36.2495 10.6529 36.2495 10.6894C36.2495 10.7259 36.2349 10.7478 36.1838 10.7478Z" fill="white"/>
<path d="M36.1623 10.4116C35.9651 10.4116 35.8044 10.5723 35.8044 10.7695C35.8117 10.9667 35.9651 11.1274 36.1623 11.1274C36.3595 11.1274 36.5202 10.9667 36.5202 10.7695C36.5202 10.5723 36.3595 10.4116 36.1623 10.4116ZM36.1623 11.0617C36.0016 11.0617 35.8774 10.9302 35.8774 10.7695C35.8774 10.6088 36.0089 10.4774 36.1623 10.4774C36.323 10.4774 36.4472 10.6088 36.4472 10.7695C36.4472 10.9302 36.3157 11.0617 36.1623 11.0617Z" fill="white"/>
<path d="M36.7541 13.7791C36.2355 13.7791 35.8118 14.2027 35.8118 14.7213C35.8118 15.2399 36.2355 15.6636 36.7541 15.6636C37.2727 15.6636 37.6963 15.2399 37.6963 14.7213C37.6963 14.1954 37.2727 13.7791 36.7541 13.7791Z" fill="white"/>
</svg>
