<?xml version="1.0" encoding="utf-8"?>
<!-- Generator: Adobe Illustrator 15.0.2, SVG Export Plug-In . SVG Version: 6.00 Build 0)  -->
<!DOCTYPE svg PUBLIC "-//W3C//DTD SVG 1.1//EN" "http://www.w3.org/Graphics/SVG/1.1/DTD/svg11.dtd">
<svg version="1.1" xmlns="http://www.w3.org/2000/svg" xmlns:xlink="http://www.w3.org/1999/xlink" x="0px" y="0px" width="181px"
	 height="43px" viewBox="0 0 181 43" enable-background="new 0 0 181 43" xml:space="preserve">
<g id="_x31__1_" enable-background="new    ">
	<g id="_x31_">
		<g>
			<path fill-rule="evenodd" clip-rule="evenodd" d="M133.273,20.458h2.402c2.529,0,4.057-1.331,4.057-3.531
				s-1.527-3.531-4.057-3.531h-3.791v10.13h1.389V20.458z M133.273,14.655h2.361c1.777,0,2.709,0.824,2.709,2.271
				s-0.932,2.271-2.709,2.271h-2.361V14.655z M152.736,22.267h-5.265v-8.871h-1.39v10.13h6.654V22.267z M166.643,13.396h-1.347
				v5.701c0,2.244-1.001,3.257-2.751,3.257s-2.736-1.013-2.736-3.257v-5.701h-1.389v5.76c0,2.938,1.556,4.486,4.111,4.486
				c2.57,0,4.111-1.549,4.111-4.486V13.396z M176.494,22.411c-1.25,0-2.486-0.492-3.209-1.172l-0.514,1.129
				c0.777,0.752,2.236,1.273,3.723,1.273c2.57,0,3.764-1.332,3.764-2.88c0-3.719-5.889-2.171-5.889-4.646
				c0-0.883,0.708-1.606,2.361-1.606c0.861,0,1.819,0.261,2.666,0.825l0.459-1.158c-0.806-0.579-1.986-0.896-3.125-0.896
				c-2.557,0-3.723,1.331-3.723,2.894c0,3.763,5.889,2.2,5.889,4.675C178.896,21.731,178.175,22.411,176.494,22.411z M40.72,35.642
				h0.566v-3.648h2.321v3.648h0.561v-4.167H40.72V35.642z M48.116,31.475h-1.561v4.167h0.572V34.38h0.989
				c1.041,0,1.669-0.548,1.669-1.452C49.785,32.022,49.156,31.475,48.116,31.475z M48.099,33.861h-0.972v-1.868h0.972
				c0.732,0,1.115,0.339,1.115,0.935C49.214,33.522,48.831,33.861,48.099,33.861z M53.579,31.428c-1.229,0-2.132,0.91-2.132,2.131
				c0,1.22,0.903,2.131,2.132,2.131c1.218,0,2.122-0.905,2.122-2.131C55.701,32.332,54.797,31.428,53.579,31.428z M53.579,35.16
				c-0.897,0-1.561-0.679-1.561-1.602s0.663-1.602,1.561-1.602c0.886,0,1.55,0.679,1.55,1.602S54.465,35.16,53.579,35.16z
				 M60.06,31.742V31.32h-0.532v0.422c-1.349,0.054-2.127,0.709-2.127,1.811c0,1.095,0.778,1.75,2.127,1.803v0.441h0.532v-0.441
				c1.35-0.047,2.121-0.701,2.121-1.803C62.181,32.457,61.404,31.796,60.06,31.742z M59.528,34.893
				c-0.995-0.067-1.572-0.52-1.572-1.34c0-0.822,0.555-1.274,1.572-1.34V34.893z M60.06,34.893v-2.68
				c1,0.06,1.572,0.523,1.572,1.333C61.632,34.368,61.078,34.825,60.06,34.893z M64.774,33.778h2.007v-0.506h-2.007v-1.279h2.253
				v-0.519h-2.825v4.167h2.905v-0.518h-2.333V33.778z M70.964,31.957c0.44,0,0.817,0.154,1.126,0.494l0.372-0.376
				c-0.366-0.428-0.903-0.647-1.521-0.647c-1.218,0-2.121,0.897-2.121,2.131c0,1.232,0.903,2.131,2.115,2.131
				c0.624,0,1.161-0.227,1.527-0.655L72.09,34.66c-0.309,0.339-0.686,0.5-1.126,0.5c-0.903,0-1.572-0.679-1.572-1.602
				S70.061,31.957,70.964,31.957z M76.21,31.957c0.44,0,0.817,0.154,1.126,0.494l0.372-0.376c-0.366-0.428-0.903-0.647-1.521-0.647
				c-1.218,0-2.121,0.897-2.121,2.131c0,1.232,0.903,2.131,2.115,2.131c0.624,0,1.161-0.227,1.527-0.655l-0.372-0.374
				c-0.309,0.339-0.686,0.5-1.126,0.5c-0.903,0-1.572-0.679-1.572-1.602S75.307,31.957,76.21,31.957z M80.204,34.689v-3.215h-0.566
				v4.167h0.526l2.373-3.209v3.209h0.561v-4.167h-0.526L80.204,34.689z M87.285,31.428c-1.229,0-2.132,0.91-2.132,2.131
				c0,1.22,0.903,2.131,2.132,2.131c1.218,0,2.122-0.905,2.122-2.131C89.407,32.332,88.503,31.428,87.285,31.428z M87.285,35.16
				c-0.897,0-1.561-0.679-1.561-1.602s0.663-1.602,1.561-1.602c0.887,0,1.55,0.679,1.55,1.602S88.172,35.16,87.285,35.16z
				 M94.344,33.266h-2.299v-1.791h-0.571v4.167h0.571v-1.856h2.299v1.856h0.572v-4.167h-0.572V33.266z M98.561,31.475l-1.813,4.167
				h0.589l0.44-1.042h2.127l0.439,1.042h0.602l-1.818-4.167H98.561z M97.978,34.124l0.863-2.042l0.863,2.042H97.978z
				 M103.166,33.231c-0.045,1.291-0.217,1.904-0.715,1.904c-0.063,0-0.113-0.006-0.183-0.024l-0.04,0.53
				c0.137,0.036,0.246,0.048,0.36,0.048c0.789,0,1.034-0.822,1.087-2.477l0.039-1.22h1.773v3.648h0.56v-4.167h-2.819L103.166,33.231
				z M110.19,32.928h-1.188v-1.453h-0.566v4.167h1.652c1,0,1.578-0.476,1.578-1.398C111.666,33.374,111.14,32.928,110.19,32.928z
				 M110.064,35.171h-1.063v-1.773h1.063c0.669,0,1.029,0.268,1.029,0.857C111.094,34.856,110.729,35.171,110.064,35.171z
				 M116.523,33.266h-2.299v-1.791h-0.572v4.167h0.572v-1.856h2.299v1.856h0.571v-4.167h-0.571V33.266z M120.74,31.475l-1.813,4.167
				h0.588l0.441-1.042h2.127l0.439,1.042h0.601l-1.817-4.167H120.74z M120.156,34.124l0.863-2.042l0.863,2.042H120.156z
				 M124.665,32.975c0,0.673,0.32,1.149,0.886,1.346l-0.886,1.321h0.606l0.801-1.22c0.051,0.006,0.103,0.006,0.154,0.006h1.104
				v1.214h0.561v-4.167h-1.607C125.3,31.475,124.665,32.022,124.665,32.975z M127.33,31.993v1.934h-1.059
				c-0.68,0-1.029-0.345-1.029-0.958c0-0.644,0.384-0.976,1.064-0.976H127.33z M136.234,31.475h-0.612l-1.258,1.81h-0.847v-1.81
				h-0.561v4.167h0.561v-1.834h0.835l1.298,1.834h0.652l-1.498-2.149L136.234,31.475z M139.965,31.428
				c-1.229,0-2.133,0.91-2.133,2.131c0,1.22,0.903,2.131,2.133,2.131c1.218,0,2.121-0.905,2.121-2.131
				C142.086,32.332,141.183,31.428,139.965,31.428z M139.965,35.16c-0.897,0-1.561-0.679-1.561-1.602s0.663-1.602,1.561-1.602
				c0.887,0,1.549,0.679,1.549,1.602S140.852,35.16,139.965,35.16z M145.971,31.957c0.441,0,0.818,0.154,1.127,0.494l0.371-0.376
				c-0.365-0.428-0.902-0.647-1.521-0.647c-1.218,0-2.121,0.897-2.121,2.131c0,1.232,0.903,2.131,2.115,2.131
				c0.624,0,1.161-0.227,1.526-0.655l-0.371-0.374c-0.309,0.339-0.686,0.5-1.127,0.5c-0.902,0-1.572-0.679-1.572-1.602
				S145.068,31.957,145.971,31.957z M153.184,31.475l-1.646,2.929l-1.669-2.929h-0.469v4.167h0.549v-3.018l1.446,2.512h0.264
				l1.445-2.53l0.006,3.036h0.549l-0.006-4.167H153.184z M156.617,33.778h2.007v-0.506h-2.007v-1.279h2.253v-0.519h-2.825v4.167
				h2.905v-0.518h-2.333V33.778z M160.439,31.993h1.367v3.648h0.561v-3.648h1.372v-0.519h-3.3V31.993z M166.145,34.689v-3.215
				h-0.566v4.167h0.525l2.373-3.209v3.209h0.561v-4.167h-0.525L166.145,34.689z M174.7,31.475h-0.612l-1.257,1.81h-0.847v-1.81
				h-0.561v4.167h0.561v-1.834h0.835l1.298,1.834h0.652l-1.498-2.149L174.7,31.475z M178.454,31.475h-0.565l-1.813,4.167h0.589
				l0.44-1.042h2.127l0.439,1.042h0.601L178.454,31.475z M177.305,34.124l0.863-2.042l0.863,2.042H177.305z M46.735,9.369h-6.144
				V23.37h3.802v-3.66h2.342c3.667,0,5.972-1.98,5.972-5.161C52.707,11.349,50.403,9.369,46.735,9.369z M46.505,16.589h-2.112
				v-4.101h2.112c1.575,0,2.362,0.761,2.362,2.061C48.867,15.829,48.08,16.589,46.505,16.589z M58.219,18.39
				c0-1.9,1.018-2.681,2.496-2.681c0.269,0,0.499,0.021,0.826,0.061v-3.42c-1.536,0-2.746,0.499-3.495,1.479v-1.3h-3.476V23.37
				h3.648V18.39z M68.146,12.35c-3.283,0-5.722,2.319-5.722,5.58c0,3.24,2.4,5.62,6.106,5.62c1.978,0,3.437-0.6,4.435-1.76
				l-1.92-2.08c-0.71,0.64-1.382,0.939-2.4,0.939c-1.344,0-2.247-0.64-2.554-1.739h7.565c0.019-0.301,0.058-0.661,0.058-0.94
				C73.715,14.389,71.219,12.35,68.146,12.35z M66.035,16.909c0.211-1.14,0.998-1.86,2.131-1.86c1.133,0,1.939,0.721,2.131,1.86
				H66.035z M78.209,15.809c0-0.399,0.442-0.76,1.67-0.76c0.922,0,1.958,0.2,2.996,0.8l1.094-2.58
				c-1.037-0.6-2.649-0.919-4.109-0.919c-3.264,0-5.069,1.56-5.069,3.6c0,4.341,6.144,2.681,6.144,4.141
				c0,0.46-0.403,0.74-1.632,0.74c-1.268,0-2.669-0.381-3.629-1l-1.095,2.6c1.018,0.66,2.842,1.12,4.608,1.12
				c3.379,0,5.146-1.56,5.146-3.561C84.334,15.689,78.209,17.31,78.209,15.809z M92.188,20.27c-0.308,0.221-0.71,0.341-1.114,0.341
				c-0.652,0-1.094-0.44-1.094-1.24V15.77h2.381v-2.841H89.98v-2.82h-3.648v2.82h-1.517v2.841h1.517v3.641
				c0,2.779,1.555,4.14,4.224,4.14c0.959,0,1.901-0.2,2.535-0.62L92.188,20.27z M94.493,23.37h3.648V12.529h-3.648V23.37z
				 M96.317,11.329c1.344,0,2.228-0.881,2.228-2.08c0-1.141-0.884-1.96-2.228-1.96c-1.345,0-2.228,0.879-2.228,2.02
				C94.09,10.448,94.973,11.329,96.317,11.329z M108.223,13.85c-0.711-1.021-1.824-1.5-3.265-1.5c-2.765,0-5.107,2.039-5.107,5.22
				c0,3.2,2.343,5.241,5.107,5.241c1.325,0,2.381-0.42,3.091-1.28v0.359c0,1.701-0.825,2.62-2.783,2.62
				c-1.229,0-2.65-0.44-3.514-1.16l-1.325,2.661c1.267,0.939,3.168,1.42,5.165,1.42c3.879,0,6.105-1.94,6.105-6.041v-8.86h-3.475
				V13.85z M105.822,19.789c-1.306,0-2.285-0.899-2.285-2.22s0.979-2.2,2.285-2.2c1.305,0,2.266,0.88,2.266,2.2
				S107.127,19.789,105.822,19.789z M124.678,17.97c0-3.581-2.496-5.62-5.567-5.62c-3.284,0-5.722,2.319-5.722,5.58
				c0,3.24,2.4,5.62,6.105,5.62c1.978,0,3.438-0.6,4.436-1.76l-1.92-2.08c-0.711,0.64-1.383,0.939-2.4,0.939
				c-1.344,0-2.246-0.64-2.554-1.739h7.565C124.64,18.609,124.678,18.249,124.678,17.97z M116.998,16.909
				c0.211-1.14,0.998-1.86,2.131-1.86s1.939,0.721,2.132,1.86H116.998z"/>
		</g>
	</g>
</g>
<g id="_x32__1_" enable-background="new    ">
	<g id="_x32_">
		<g>
			<path fill-rule="evenodd" clip-rule="evenodd" d="M25.511,9.025c-1.108-5.618-5.823-8.906-12.995-8.906H0.377v33.787h3.429
				V23.239h3.545v-3.138H3.806V3.209h8.618c5.009,0,8.186,1.849,9.377,5.177c-0.475-0.032-0.96-0.049-1.458-0.049H8.203v33.786
				h3.429V31.456h8.71c8.247,0,13.251-4.344,13.251-11.535C33.593,14.354,30.626,10.51,25.511,9.025z M20.249,28.319h-8.618V11.426
				h8.618c0.736,0,1.427,0.045,2.083,0.124c0,0.052,0.006,0.101,0.006,0.153c0,5.248-3.355,8.321-9.697,8.392v3.141
				c7.878-0.043,12.753-4.081,13.093-10.782c2.911,1.321,4.43,3.88,4.43,7.468C30.165,25.23,26.736,28.319,20.249,28.319z"/>
		</g>
	</g>
</g>
</svg>
