<svg width="43" height="24" viewBox="0 0 43 24" fill="none" xmlns="http://www.w3.org/2000/svg">
<rect width="42.4615" height="24" fill="white"/>
<path d="M24.4564 18.5341H17.1879V5.47119H24.4564V18.5341Z" fill="#6C6BBD"/>
<path d="M17.6529 12.0016C17.6529 9.35177 18.8936 6.99135 20.8256 5.4702C19.4128 4.35786 17.6296 3.69394 15.6918 3.69394C11.104 3.69394 7.38513 7.41336 7.38513 12.0016C7.38513 16.5899 11.104 20.3093 15.6918 20.3093C17.6296 20.3093 19.4128 19.6454 20.8256 18.5331C18.8936 17.0119 17.6529 14.6515 17.6529 12.0016Z" fill="#EB001B"/>
<path d="M34.2585 12.0016C34.2585 16.5899 30.5397 20.3093 25.9519 20.3093C24.014 20.3093 22.2309 19.6454 20.8175 18.5331C22.7501 17.0119 23.9908 14.6515 23.9908 12.0016C23.9908 9.35177 22.7501 6.99135 20.8175 5.4702C22.2309 4.35786 24.014 3.69394 25.9519 3.69394C30.5397 3.69394 34.2585 7.41336 34.2585 12.0016Z" fill="#0099DF"/>
</svg>
