<svg width="43" height="24" viewBox="0 0 43 24" fill="none" xmlns="http://www.w3.org/2000/svg">
<rect width="42.4615" height="24" fill="white"/>
<path d="M34.0074 17.1431V16.8209H33.9234L33.8262 17.0422L33.7295 16.8209H33.645V17.1431H33.7047V16.9001L33.7956 17.1098H33.8574L33.9482 16.8996V17.1431H34.0074ZM33.4744 17.1431V16.8758H33.5822V16.8214H33.3075V16.8758H33.4153V17.1431H33.4744Z" fill="#F79410"/>
<path d="M24.4575 18.5299H17.1889V5.46704H24.4575V18.5299Z" fill="#FF5F00"/>
<path d="M17.6545 11.9968C17.6545 9.34689 18.8952 6.98646 20.8272 5.46532C19.4144 4.35298 17.6312 3.68906 15.6934 3.68906C11.1056 3.68906 7.38672 7.40848 7.38672 11.9968C7.38672 16.585 11.1056 20.3044 15.6934 20.3044C17.6312 20.3044 19.4144 19.6405 20.8272 18.5282C18.8952 17.007 17.6545 14.6466 17.6545 11.9968Z" fill="#EB001B"/>
<path d="M34.2601 11.9968C34.2601 16.585 30.5412 20.3044 25.9535 20.3044C24.0156 20.3044 22.2325 19.6405 20.8191 18.5282C22.7517 17.007 23.9923 14.6466 23.9923 11.9968C23.9923 9.34689 22.7517 6.98646 20.8191 5.46532C22.2325 4.35298 24.0156 3.68906 25.9535 3.68906C30.5412 3.68906 34.2601 7.40848 34.2601 11.9968Z" fill="#F79E1B"/>
</svg>
