<svg width="43" height="24" viewBox="0 0 43 24" fill="none" xmlns="http://www.w3.org/2000/svg">
<rect width="42.4615" height="24" fill="white"/>
<path d="M27.6944 7.38525H25.0612C24.9063 7.38525 24.7514 7.54015 24.674 7.69504L23.5897 14.5103C23.5897 14.6652 23.6672 14.7427 23.8221 14.7427H25.2161C25.371 14.7427 25.4484 14.6652 25.4484 14.5103L25.7582 12.5742C25.7582 12.4193 25.9131 12.2644 26.1455 12.2644H26.9974C28.7786 12.2644 29.7854 11.4125 30.0178 9.70864C30.1727 9.01163 30.0178 8.39206 29.708 8.00483C29.2433 7.61759 28.5463 7.38525 27.6944 7.38525ZM28.0042 9.94098C27.8493 10.8703 27.1523 10.8703 26.4552 10.8703H25.9906L26.3003 9.08907C26.3003 9.01163 26.3778 8.93418 26.5327 8.93418H26.6876C27.1523 8.93418 27.6169 8.93418 27.8493 9.24397C28.0042 9.32141 28.0042 9.55375 28.0042 9.94098Z" fill="#139AD6"/>
<path d="M8.72026 7.38501H6.08708C5.93219 7.38501 5.7773 7.5399 5.69985 7.69479L4.6156 14.5101C4.6156 14.665 4.69305 14.7424 4.84794 14.7424H6.08708C6.24197 14.7424 6.39687 14.5875 6.47431 14.4326L6.7841 12.5739C6.7841 12.419 6.93899 12.2641 7.17133 12.2641H8.02324C9.80451 12.2641 10.8113 11.4122 11.0436 9.7084C11.1985 9.01138 11.0436 8.39181 10.7339 8.00458C10.2692 7.61735 9.64961 7.38501 8.72026 7.38501ZM9.03004 9.94074C8.87515 10.8701 8.17813 10.8701 7.48112 10.8701H7.09388L7.40367 9.08883C7.40367 9.01138 7.48112 8.93394 7.63601 8.93394H7.7909C8.25558 8.93394 8.72026 8.93394 8.9526 9.24372C9.03004 9.32117 9.10749 9.55351 9.03004 9.94074Z" fill="#263B80"/>
<path d="M16.6966 9.86315H15.4575C15.38 9.86315 15.2251 9.94059 15.2251 10.018L15.1477 10.4053L15.0702 10.2504C14.7605 9.86315 14.2183 9.70825 13.5988 9.70825C12.2047 9.70825 10.9656 10.7925 10.7332 12.264C10.5783 13.0384 10.8107 13.7355 11.1979 14.2001C11.5852 14.6648 12.1273 14.8197 12.8243 14.8197C13.986 14.8197 14.6056 14.1227 14.6056 14.1227L14.5281 14.5099C14.5281 14.6648 14.6056 14.7423 14.7605 14.7423H15.9221C16.077 14.7423 16.2319 14.5874 16.3094 14.4325L17.0064 10.0955C16.929 10.018 16.7741 9.86315 16.6966 9.86315ZM14.9153 12.3414C14.7605 13.0384 14.2183 13.5806 13.4439 13.5806C13.0566 13.5806 12.7468 13.4257 12.592 13.2708C12.4371 13.0384 12.3596 12.7287 12.3596 12.3414C12.4371 11.6444 13.0566 11.1023 13.7536 11.1023C14.1409 11.1023 14.3732 11.2572 14.6056 11.4121C14.8379 11.6444 14.9153 12.0316 14.9153 12.3414Z" fill="#263B80"/>
<path d="M35.5942 9.86363H34.355C34.2776 9.86363 34.1227 9.94108 34.1227 10.0185L34.0452 10.4058L33.9678 10.2509C33.658 9.86363 33.1159 9.70874 32.4963 9.70874C31.1023 9.70874 29.8631 10.793 29.6308 12.2645C29.4759 13.0389 29.7082 13.736 30.0955 14.2006C30.4827 14.6653 31.0248 14.8202 31.7218 14.8202C32.8835 14.8202 33.5031 14.1232 33.5031 14.1232L33.4257 14.5104C33.4257 14.6653 33.5031 14.7428 33.658 14.7428H34.8197C34.9746 14.7428 35.1295 14.5879 35.2069 14.433L35.9039 10.096C35.8265 10.0185 35.7491 9.86363 35.5942 9.86363ZM33.8129 12.3419C33.658 13.0389 33.1159 13.5811 32.3414 13.5811C31.9542 13.5811 31.6444 13.4262 31.4895 13.2713C31.3346 13.0389 31.2572 12.7291 31.2572 12.3419C31.3346 11.6449 31.9542 11.1028 32.6512 11.1028C33.0384 11.1028 33.2708 11.2577 33.5031 11.4126C33.8129 11.6449 33.8903 12.0321 33.8129 12.3419Z" fill="#139AD6"/>
<path d="M23.4343 9.86377H22.1177C21.9628 9.86377 21.8854 9.94122 21.8079 10.0187L20.1041 12.6518L19.3297 10.1736C19.2522 10.0187 19.1748 9.94122 18.9424 9.94122H17.7033C17.5484 9.94122 17.4709 10.0961 17.4709 10.251L18.865 14.3557L17.5484 16.2144C17.4709 16.3693 17.5484 16.6016 17.7033 16.6016H18.9424C19.0973 16.6016 19.1748 16.5242 19.2522 16.4467L23.5118 10.3284C23.7441 10.0961 23.5892 9.86377 23.4343 9.86377Z" fill="#263B80"/>
<path d="M37.065 7.6174L35.9807 14.5876C35.9807 14.7425 36.0582 14.8199 36.2131 14.8199H37.2973C37.4522 14.8199 37.6071 14.665 37.6845 14.5101L38.7688 7.69485C38.7688 7.53996 38.6913 7.46251 38.5364 7.46251H37.2973C37.2199 7.38507 37.1424 7.46251 37.065 7.6174Z" fill="#139AD6"/>
</svg>
