<svg width="17" height="14" viewBox="0 0 17 14" fill="none" xmlns="http://www.w3.org/2000/svg">
<path d="M11.2273 9.66667V1H1V9.66667H11.2273ZM11.2273 9.66667H16V6.33333L13.9545 4.33333H11.2273V9.66667ZM5.77273 11.3333C5.77273 12.2538 5.00958 13 4.06818 13C3.12679 13 2.36364 12.2538 2.36364 11.3333C2.36364 10.4129 3.12679 9.66667 4.06818 9.66667C5.00958 9.66667 5.77273 10.4129 5.77273 11.3333ZM14.6364 11.3333C14.6364 12.2538 13.8732 13 12.9318 13C11.9904 13 11.2273 12.2538 11.2273 11.3333C11.2273 10.4129 11.9904 9.66667 12.9318 9.66667C13.8732 9.66667 14.6364 10.4129 14.6364 11.3333Z" stroke="#111111" stroke-width="1.1" stroke-linecap="round" stroke-linejoin="round"/>
</svg>
