<?xml version="1.0" encoding="utf-8"?><!DOCTYPE svg PUBLIC "-//W3C//DTD SVG 1.1//EN" "http://www.w3.org/Graphics/SVG/1.1/DTD/svg11.dtd"><svg viewBox="0 0 2000 2000" xmlns="http://www.w3.org/2000/svg" xmlns:xlink="http://www.w3.org/1999/xlink"><style>:root>svg{display:none}:root>svg:target{display:block}</style><svg fill="none" viewBox="0 0 1366 650" id="bg" xmlns="http://www.w3.org/2000/svg"><path fill="#1F1F1F" d="M0 0h1366v650H0z"/><path d="M1366 305c-1.39.007-2.78.032-4.17.068h-.01c-6.17.17-12.28.664-17.88 1.524-14.72 2.261-31.87 4.966-45.76 10.399v.007c-.31.107-.61.229-.9.35-23.37 9.439-48.07 15.005-69.54 28.459-21.16 13.252-40.72 27.307-62.22 39.985-27.92 16.476-52.46 34.415-75.36 57.249-19.23 19.169-34.77 50.948-42.26 76.239-.94 3.204-1.79 6.425-2.55 9.646-6.52 27.681-6.44 56.081-6.32 84.523.06 12.596 2.9 24.47 4.76 36.551H1366V305zM448 0c-16.302 19.804-31.688 36.983-33.987 39.202-11.95 11.546-24.813 23.411-39.842 30.719-11.77 5.73-23.88 11.404-36.015 16.277-22.611 9.087-45.164 17.764-67.352 27.944-24.588 11.289-46.856 27.826-69.218 42.982-12.88 8.73-25.815 17.377-38.136 26.887-11.313 8.712-24.044 15.312-35.232 24.163-7.776 6.139-17.05 9.486-26.168 13.253-22.76 9.399-46.988 12.909-71.402 14.782-10.689.825-20.618 1.051-30.648.457V0h448z" fill="#2B2B2B"/></svg><svg fill="none" viewBox="0 0 1366 650" id="bg2" xmlns="http://www.w3.org/2000/svg"><path fill="#1F1F1F" d="M0 0h1366v650H0z"/><path d="M1366 305c-1.39.007-2.78.032-4.17.068h-.01c-6.17.17-12.28.664-17.88 1.524-14.72 2.261-31.87 4.966-45.76 10.399v.007c-.31.107-.61.229-.9.35-23.37 9.439-48.07 15.005-69.54 28.459-21.16 13.252-40.72 27.307-62.22 39.985-27.92 16.476-52.46 34.415-75.36 57.249-19.23 19.169-34.77 50.948-42.26 76.239-.94 3.204-1.79 6.425-2.55 9.646-6.52 27.681-6.44 56.081-6.32 84.523.06 12.596 2.9 24.47 4.76 36.551H1366V305zM448 0c-16.302 19.804-31.688 36.983-33.987 39.202-11.95 11.546-24.813 23.411-39.842 30.719-11.77 5.73-23.88 11.404-36.015 16.277-22.611 9.087-45.164 17.764-67.352 27.944-24.588 11.289-46.856 27.826-69.218 42.982-12.88 8.73-25.815 17.377-38.136 26.887-11.313 8.712-24.044 15.312-35.232 24.163-7.776 6.139-17.05 9.486-26.168 13.253-22.76 9.399-46.988 12.909-71.402 14.782-10.689.825-20.618 1.051-30.648.457V0h448z" fill="#2B2B2B"/></svg><svg fill="none" viewBox="0 0 21 20" id="cart" xmlns="http://www.w3.org/2000/svg"><path d="M8.773 18.143a.86.86 0 01-.864.857m.864-.857a.86.86 0 00-.864-.857m.864.857H7.045M7.91 19a.86.86 0 01-.864-.857M7.91 19v-.857-.857m-.864.857a.86.86 0 01.864-.857m10.364.857a.86.86 0 01-.864.857m.864-.857a.86.86 0 00-.864-.857m.864.857h-1.727m.863.857a.86.86 0 01-.863-.857m.863.857v-1.714m-.863.857a.86.86 0 01.863-.857M1 1h3.455l2.314 11.477c.08.395.295.75.611 1.002s.711.386 1.116.378h8.395c.405.008.8-.126 1.116-.378.316-.253.532-.607.611-1.002L20 5.286H5.318" stroke="#111" stroke-width="1.5" stroke-linecap="round" stroke-linejoin="round"/></svg><svg fill="none" viewBox="0 0 43 24" id="express" xmlns="http://www.w3.org/2000/svg"><path fill="#006FCF" d="M0 0h42.462v24H0z"/><path d="M34.123 10.528h2.547V4.615h-2.771v.824l-.525-.824h-2.396v1.048l-.45-1.048H26.11c-.15 0-.3.075-.45.075-.15 0-.224.075-.374.15s-.225.075-.374.15v-.375H12.255l-.375.973-.374-.973H8.51v1.048l-.449-1.048H5.665L4.616 7.16v3.368h1.723l.3-.823h.598l.3.823h13.18V9.78l.525.748h3.67v-.449c.075.075.224.075.3.15.074.075.224.075.299.15.15.074.3.074.45.074h2.695l.3-.823h.599l.3.823h3.67v-.748l.598.823zm4.12 7.485v-5.539H17.646l-.524.748-.524-.748h-5.992v5.913H16.6l.524-.749.524.749h3.745v-1.273h-.15c.524 0 .974-.074 1.348-.224v1.572h2.696v-.749l.524.749h11.16c.449-.15.898-.225 1.272-.45z" fill="#fff"/><path d="M36.968 16.646h-2.022v.826h1.947c.824 0 1.348-.526 1.348-1.277 0-.751-.45-1.127-1.198-1.127h-.899c-.224 0-.374-.15-.374-.375 0-.226.15-.376.374-.376h1.723l.374-.826H36.22c-.824 0-1.348.526-1.348 1.202 0 .751.45 1.127 1.198 1.127h.9c.224 0 .373.15.373.375.075.3-.074.45-.374.45zm-3.67 0h-2.022v.826h1.948c.823 0 1.348-.526 1.348-1.277 0-.751-.45-1.127-1.199-1.127h-.898c-.225 0-.375-.15-.375-.375 0-.226.15-.376.375-.376h1.722l.374-.826H32.55c-.824 0-1.349.526-1.349 1.202 0 .751.45 1.127 1.199 1.127h.898c.225 0 .375.15.375.375.075.3-.15.45-.375.45zm-2.62-2.404v-.826h-3.146v3.981h3.145v-.826H28.43v-.827h2.172v-.826H28.43v-.75h2.247v.074zm-5.094 0c.375 0 .525.225.525.45 0 .226-.15.452-.525.452h-1.123v-.977l1.123.075zm-1.123 1.728h.45l1.198 1.427h1.123l-1.348-1.502c.674-.15 1.049-.601 1.049-1.202 0-.751-.525-1.277-1.349-1.277h-2.096v3.981h.898l.075-1.427zm-2.396-1.202c0 .3-.15.526-.525.526h-1.198v-1.052h1.123c.375 0 .6.225.6.526zm-2.622-1.352v3.981h.9v-1.352h1.197c.824 0 1.423-.526 1.423-1.352 0-.751-.524-1.352-1.348-1.352l-2.172.075zm-1.348 3.981h1.124l-1.573-2.028 1.573-1.953h-1.124l-.973 1.277-.974-1.277h-1.123l1.572 1.953-1.572 1.953h1.123l.974-1.277.973 1.352zm-3.37-3.155v-.826H11.58v3.981h3.145v-.826H12.48v-.827h2.171v-.826H12.48v-.75h2.246v.074zm18.199-7.06l1.573 2.403h1.123V5.604h-.899v2.629l-.224-.376-1.423-2.253h-1.199v3.981h.9V6.881l.149.3zm-3.894-.076l.3-.826.299.826.374.902h-1.348l.375-.902zm1.572 2.48h.974l-1.723-3.982h-1.198l-1.722 3.981h.973l.375-.826h1.947l.374.826zm-4.194 0l.375-.827h-.225c-.674 0-1.048-.45-1.048-1.127v-.075c0-.676.374-1.127 1.048-1.127h.974v-.826h-1.049c-1.198 0-1.872.826-1.872 1.953v.075c0 1.202.674 1.953 1.797 1.953zm-3.37 0h.899V5.678h-.899v3.906zM21.091 6.43c.374 0 .524.226.524.451s-.15.45-.524.45h-1.123v-.976l1.123.075zm-1.123 1.728h.449l1.198 1.427h1.124L21.39 8.083c.674-.15 1.048-.601 1.048-1.202 0-.751-.524-1.277-1.348-1.277h-2.097v3.981h.899l.075-1.427zM18.32 6.43v-.826h-3.145v3.981h3.145V8.76h-2.247v-.826h2.172v-.827h-2.172v-.75h2.247v.074zm-6.815 3.155h.824l1.123-3.23v3.23h.899V5.604h-1.498l-.899 2.704-.898-2.704H9.558v3.981h.898v-3.23l1.049 3.23zM6.637 7.106l.3-.826.3.826.374.902H6.262l.375-.902zm1.573 2.48h.973L7.461 5.603H6.337L4.615 9.585h.973l.375-.826H7.91l.3.826z" fill="#006FCF"/></svg><svg fill="none" viewBox="0 0 1366 650" id="footer" xmlns="http://www.w3.org/2000/svg"><path fill="#1F1F1F" d="M0 0h1366v650H0z"/><path d="M1366 305c-1.39.007-2.78.032-4.17.068h-.01c-6.17.17-12.28.664-17.88 1.524-14.72 2.261-31.87 4.966-45.76 10.399v.007c-.31.107-.61.229-.9.35-23.37 9.439-48.07 15.005-69.54 28.459-21.16 13.252-40.72 27.307-62.22 39.985-27.92 16.476-52.46 34.415-75.36 57.249-19.23 19.169-34.77 50.948-42.26 76.239-.94 3.204-1.79 6.425-2.55 9.646-6.52 27.681-6.44 56.081-6.32 84.523.06 12.596 2.9 24.47 4.76 36.551H1366V305zM448 0c-16.302 19.804-31.688 36.983-33.987 39.202-11.95 11.546-24.813 23.411-39.842 30.719-11.77 5.73-23.88 11.404-36.015 16.277-22.611 9.087-45.164 17.764-67.352 27.944-24.588 11.289-46.856 27.826-69.218 42.982-12.88 8.73-25.815 17.377-38.136 26.887-11.313 8.712-24.044 15.312-35.232 24.163-7.776 6.139-17.05 9.486-26.168 13.253-22.76 9.399-46.988 12.909-71.402 14.782-10.689.825-20.618 1.051-30.648.457V0h448z" fill="#2B2B2B"/></svg><svg viewBox="0 0 1366 408" fill="none" id="footer2" xmlns="http://www.w3.org/2000/svg"><rect fill="#1F1F1F"/><path d="M1366 63c-1.39.007-2.78.032-4.17.068h-.01c-6.17.17-12.28.664-17.88 1.524-14.72 2.26-31.87 4.966-45.76 10.399v.007c-.31.107-.61.228-.9.35-23.37 9.439-48.07 15.005-69.54 28.459-21.16 13.252-40.72 27.307-62.22 39.985-27.92 16.476-52.46 34.415-75.36 57.249-19.23 19.169-34.77 50.948-42.26 76.239-.94 3.204-1.79 6.425-2.55 9.646-6.52 27.681-6.44 56.081-6.32 84.523.06 12.596 2.9 24.47 4.76 36.551H1366V63zM448 0c-16.302 19.804-31.688 36.983-33.987 39.202-11.95 11.546-24.813 23.411-39.842 30.719-11.77 5.73-23.88 11.404-36.015 16.277-22.611 9.087-45.164 17.764-67.352 27.944-24.588 11.289-46.856 27.826-69.218 42.982-12.88 8.73-25.815 17.377-38.136 26.887-11.313 8.712-24.044 15.312-35.232 24.163-7.776 6.139-17.05 9.486-26.168 13.253-22.76 9.399-46.988 12.909-71.402 14.782-10.689.825-20.618 1.051-30.648.457V0h448z" fill="#2B2B2B"/></svg><svg viewBox="0 0 512.003 512.003" id="goods-cart" xmlns="http://www.w3.org/2000/svg"><path d="M503.995 105.373c-6.868-8.498-17.076-13.371-28.004-13.371H85.737l-3.485-24.976C79.784 49.34 64.456 36.002 46.597 36.002H16c-8.836 0-16 7.164-16 16s7.164 16 16 16h30.597a4.016 4.016 0 013.961 3.447l43.189 309.529c2.468 17.687 17.796 31.024 35.655 31.024h17.349a47.774 47.774 0 00-2.752 16c0 26.467 21.533 48 48 48s48-21.533 48-48c0-5.609-.976-10.992-2.752-16h85.504a47.774 47.774 0 00-2.752 16c0 26.467 21.533 48 48 48s48-21.533 48-48c0-5.609-.976-10.992-2.752-16H448c8.836 0 16-7.164 16-16s-7.164-16-16-16H129.403a4.016 4.016 0 01-3.961-3.447l-3.984-28.553H436.56c16.858 0 31.663-11.965 35.205-28.458l39.429-183.997c2.291-10.681-.333-21.679-7.199-30.174zM208 428.002c0 8.822-7.178 16-16 16s-16-7.178-16-16 7.178-16 16-16 16 7.177 16 16zm176 0c0 8.822-7.178 16-16 16s-16-7.178-16-16 7.178-16 16-16 16 7.177 16 16zm95.905-299.163l-39.428 183.993a4.03 4.03 0 01-3.917 3.169H116.992l-26.79-192H475.99c1.583 0 2.569.808 3.117 1.486.547.677 1.129 1.808.798 3.352z"/></svg><svg viewBox="0 0 437.775 437.774" id="heart" xmlns="http://www.w3.org/2000/svg"><path d="M316.722 29.761c66.852 0 121.053 54.202 121.053 121.041 0 110.478-218.893 257.212-218.893 257.212S0 266.569 0 150.801c0-83.217 54.202-121.04 121.041-121.04 40.262 0 75.827 19.745 97.841 49.976 22.017-30.231 57.588-49.976 97.84-49.976z"/></svg><svg fill="none" viewBox="0 0 34 34" id="instagram" xmlns="http://www.w3.org/2000/svg"><path d="M24.5 2h-15A7.5 7.5 0 002 9.5v15A7.5 7.5 0 009.5 32h15a7.5 7.5 0 007.5-7.5v-15A7.5 7.5 0 0024.5 2z" stroke="#111" stroke-width="2.2" stroke-linecap="round" stroke-linejoin="round"/><path d="M23 16.055a6 6 0 11-11.87 1.76A6 6 0 0123 16.055z" stroke="#111" stroke-width="2.2" stroke-linecap="round" stroke-linejoin="round"/></svg><svg fill="none" viewBox="0 0 43 24" id="klarna" xmlns="http://www.w3.org/2000/svg"><path fill="#0074C8" d="M0 0h42.462v24H0z"/><path d="M10.437 8.308h-1.63a4.169 4.169 0 01-1.68 3.36l-.642.482 2.498 3.404h2.053L8.735 12.42a5.759 5.759 0 001.702-4.112zM6.281 8.308H4.616v7.246H6.28V8.308zM13.088 8.308h-1.57v7.246h1.57V8.308zM26.864 10.404c-.599 0-1.168.183-1.548.701v-.562h-1.49v5.01h1.512v-2.629c0-.76.511-1.132 1.124-1.132.658 0 1.038.394 1.038 1.125v2.644h1.497v-3.192c0-1.169-.927-1.965-2.133-1.965zM17.836 10.543v.321a2.643 2.643 0 10-1.49 4.828 2.61 2.61 0 001.49-.46v.322h1.497v-5.011h-1.497zm-1.366 3.79c-.752 0-1.358-.576-1.358-1.285 0-.708.606-1.285 1.358-1.285.752 0 1.359.577 1.359 1.285 0 .709-.607 1.286-1.359 1.286zM21.657 11.193v-.65h-1.534v5.01h1.54v-2.336c0-.79.855-1.213 1.447-1.213h.015v-1.46c-.607 0-1.17.262-1.468.65zM33.657 10.543v.321a2.643 2.643 0 10-1.49 4.828 2.61 2.61 0 001.49-.46v.322h1.497v-5.011h-1.497zm-1.366 3.79c-.752 0-1.359-.576-1.359-1.285 0-.708.607-1.285 1.359-1.285s1.359.577 1.359 1.285c.007.709-.607 1.286-1.36 1.286zM36.315 10.69c0-.074-.05-.117-.131-.117h-.139v.38h.066v-.14h.073l.058.14h.073l-.066-.154a.113.113 0 00.066-.11zm-.131.058h-.073v-.117h.073c.044 0 .066.022.066.058 0 .037-.015.059-.066.059z" fill="#fff"/><path d="M36.162 10.412a.358.358 0 00-.358.357c.008.198.161.358.358.358a.358.358 0 000-.715zm0 .65a.287.287 0 01-.285-.292c0-.161.132-.293.285-.293.161 0 .285.132.285.293 0 .16-.131.292-.285.292zM36.754 13.78a.945.945 0 00-.942.941c0 .519.424.943.942.943a.945.945 0 00.942-.943.94.94 0 00-.942-.942z" fill="#fff"/></svg><svg fill="none" viewBox="0 0 20 17" id="like" xmlns="http://www.w3.org/2000/svg"><path d="M17.612 2.326a4.756 4.756 0 00-1.537-.981 4.928 4.928 0 00-3.626 0 4.757 4.757 0 00-1.536.981L10 3.198l-.913-.872A4.852 4.852 0 005.737 1a4.852 4.852 0 00-3.35 1.326C1.5 3.175 1 4.326 1 5.526c0 1.201.5 2.352 1.388 3.201l.912.872L10 16l6.7-6.4.912-.873c.44-.42.79-.92 1.027-1.468a4.351 4.351 0 000-3.465 4.517 4.517 0 00-1.027-1.468v0z" stroke="#111" stroke-width="1.5" stroke-linecap="round" stroke-linejoin="round"/></svg><svg viewBox="0 0 512 512" id="loupe" xmlns="http://www.w3.org/2000/svg"><path d="M225.474 0C101.151 0 0 101.151 0 225.474c0 124.33 101.151 225.474 225.474 225.474 124.33 0 225.474-101.144 225.474-225.474C450.948 101.151 349.804 0 225.474 0zm0 409.323c-101.373 0-183.848-82.475-183.848-183.848S124.101 41.626 225.474 41.626s183.848 82.475 183.848 183.848-82.475 183.849-183.848 183.849z"/><path d="M505.902 476.472L386.574 357.144c-8.131-8.131-21.299-8.131-29.43 0-8.131 8.124-8.131 21.306 0 29.43l119.328 119.328A20.74 20.74 0 00491.187 512a20.754 20.754 0 0014.715-6.098c8.131-8.124 8.131-21.306 0-29.43z"/></svg><svg fill="none" viewBox="0 0 43 24" id="maestro" xmlns="http://www.w3.org/2000/svg"><path fill="#fff" d="M0 0h42.462v24H0z"/><path d="M24.456 18.534h-7.268V5.471h7.268v13.063z" fill="#6C6BBD"/><path d="M17.653 12.002c0-2.65 1.24-5.01 3.173-6.532a8.307 8.307 0 00-13.44 6.531 8.307 8.307 0 0013.44 6.532 8.294 8.294 0 01-3.173-6.531z" fill="#EB001B"/><path d="M34.258 12.002a8.307 8.307 0 01-13.44 6.531 8.293 8.293 0 003.173-6.531c0-2.65-1.24-5.01-3.174-6.532a8.307 8.307 0 0113.441 6.531z" fill="#0099DF"/></svg><svg fill="none" viewBox="0 0 43 24" id="mastercard" xmlns="http://www.w3.org/2000/svg"><path fill="#fff" d="M0 0h42.462v24H0z"/><path d="M34.007 17.143v-.322h-.084l-.097.221-.096-.221h-.085v.322h.06V16.9l.09.21h.062l.091-.21v.243h.06zm-.533 0v-.267h.108v-.055h-.275v.055h.108v.267h.06z" fill="#F79410"/><path d="M24.457 18.53H17.19V5.467h7.268V18.53z" fill="#FF5F00"/><path d="M17.654 11.997c0-2.65 1.241-5.01 3.173-6.532a8.307 8.307 0 00-13.44 6.531 8.307 8.307 0 0013.44 6.532 8.294 8.294 0 01-3.173-6.531z" fill="#EB001B"/><path d="M34.26 11.997a8.307 8.307 0 01-13.44 6.531 8.293 8.293 0 003.172-6.531c0-2.65-1.24-5.01-3.173-6.532a8.307 8.307 0 0113.441 6.531z" fill="#F79E1B"/></svg><svg fill="none" viewBox="0 0 43 24" id="paypal" xmlns="http://www.w3.org/2000/svg"><path fill="#fff" d="M0 0h42.462v24H0z"/><path d="M27.694 7.385h-2.633c-.155 0-.31.155-.387.31L23.59 14.51c0 .155.077.233.232.233h1.394c.155 0 .232-.078.232-.233l.31-1.936c0-.155.155-.31.387-.31h.852c1.782 0 2.788-.851 3.02-2.555.156-.697 0-1.317-.309-1.704-.465-.387-1.162-.62-2.014-.62zm.31 2.556c-.155.93-.852.93-1.549.93h-.464l.31-1.782c0-.077.077-.155.232-.155h.155c.464 0 .929 0 1.161.31.155.077.155.31.155.697z" fill="#139AD6"/><path d="M8.72 7.385H6.087c-.155 0-.31.155-.387.31L4.616 14.51c0 .155.077.232.232.232h1.24c.154 0 .309-.155.386-.31l.31-1.858c0-.155.155-.31.387-.31h.852c1.782 0 2.788-.852 3.02-2.556.155-.697 0-1.316-.31-1.703-.464-.388-1.083-.62-2.013-.62zm.31 2.556c-.155.93-.852.93-1.549.93h-.387l.31-1.782c0-.078.077-.155.232-.155h.155c.465 0 .93 0 1.162.31.077.077.154.31.077.697zM16.697 9.863h-1.24c-.077 0-.232.078-.232.155l-.077.387-.078-.155c-.31-.387-.852-.542-1.471-.542-1.394 0-2.633 1.085-2.866 2.556a2.308 2.308 0 00.465 1.936c.387.465.93.62 1.626.62 1.162 0 1.782-.697 1.782-.697l-.078.387c0 .155.078.232.232.232h1.162c.155 0 .31-.155.387-.31l.697-4.337c-.077-.077-.232-.232-.31-.232zm-1.782 2.478c-.154.697-.697 1.24-1.471 1.24-.387 0-.697-.155-.852-.31-.155-.233-.232-.542-.232-.93a1.418 1.418 0 011.394-1.239c.387 0 .62.155.852.31.232.232.31.62.31.93z" fill="#263B80"/><path d="M35.594 9.864h-1.239c-.077 0-.232.077-.232.154l-.078.388-.077-.155c-.31-.387-.852-.542-1.472-.542-1.394 0-2.633 1.084-2.865 2.556a2.308 2.308 0 00.465 1.936c.387.464.929.62 1.626.62 1.161 0 1.781-.698 1.781-.698l-.077.387c0 .155.077.233.232.233h1.162c.155 0 .31-.155.387-.31l.697-4.337c-.078-.078-.155-.232-.31-.232zm-1.781 2.478c-.155.697-.697 1.24-1.472 1.24-.387 0-.697-.156-.852-.31-.154-.233-.232-.543-.232-.93a1.418 1.418 0 011.394-1.24c.387 0 .62.156.852.31.31.233.387.62.31.93z" fill="#139AD6"/><path d="M23.434 9.864h-1.316c-.155 0-.233.077-.31.155l-1.704 2.633-.774-2.478c-.078-.155-.155-.233-.388-.233h-1.239c-.155 0-.232.155-.232.31l1.394 4.105-1.317 1.858c-.077.155 0 .388.155.388h1.24c.154 0 .232-.078.31-.155l4.259-6.119c.232-.232.077-.464-.078-.464z" fill="#263B80"/><path d="M37.065 7.617l-1.084 6.97c0 .155.077.233.232.233h1.084c.155 0 .31-.155.388-.31l1.084-6.815c0-.155-.078-.232-.233-.232h-1.239c-.077-.078-.155 0-.232.154z" fill="#139AD6"/></svg><svg fill="none" viewBox="0 0 18 20" id="returns" xmlns="http://www.w3.org/2000/svg"><path d="M13.167.833L16.5 4.167m0 0L13.167 7.5M16.5 4.167H4.833A3.333 3.333 0 001.5 7.5v1.667m3.333 10L1.5 15.833m0 0L4.833 12.5M1.5 15.833h11.667A3.333 3.333 0 0016.5 12.5v-1.667" stroke="#FF6F61" stroke-width="1.5" stroke-linecap="round" stroke-linejoin="round"/></svg><svg viewBox="0 0 512 512" id="ru" xmlns="http://www.w3.org/2000/svg"><circle cx="256" cy="256" r="256" fill="#f0f0f0"/><path d="M496.077 345.043C506.368 317.31 512 287.314 512 256s-5.632-61.31-15.923-89.043H15.923C5.633 194.69 0 224.686 0 256s5.633 61.31 15.923 89.043L256 367.304l240.077-22.261z" fill="#0052b4"/><path d="M256 512c110.071 0 203.906-69.472 240.077-166.957H15.923C52.094 442.528 145.929 512 256 512z" fill="#d80027"/></svg><svg viewBox="0 0 192.756 192.756" id="schwarzkopf" xmlns="http://www.w3.org/2000/svg"><g fill-rule="evenodd" clip-rule="evenodd"><path fill="#fff" d="M0 0h192.756v192.756H0V0z"/><path d="M83.101 56.053l.404.524-.726 2.099-.485 1.453.162.605.323.444.202.727-.485 1.331-.726 1.251c-1.25 2.26-1.897 3.632-1.897 4.076 0 .525.404.929 1.17 1.13.928.202 1.413.524 1.413.968l-.524 1.332.242.606.202.202v.202l-.081.04-.041.162-.161.525.202.564.364.323.161.726v.202l-.121.848-.04.605c0 1.13 1.25 1.655 3.793 1.655 1.654 0 2.704.202 3.188.524.524.403.767 1.17.767 2.38 0 3.632-1.493 7.426-4.479 11.501-1.05 1.574-1.574 2.462-1.574 2.906 0 .283.121.404.404.404 1.574 0 4.197-1.332 7.829-3.996 4.923-3.632 9.242-5.73 12.833-6.295.887-.121 1.332-.363 1.332-.767 0-.525-.324-1.735-1.051-3.511-.846-2.22-1.25-4.076-1.25-5.528 0-.969.08-1.574.242-1.816.201-.363.807-.686 1.654-1.089 1.252-.565 2.059-1.251 2.461-1.978l1.373-2.099c1.332-1.493 1.977-3.229 1.977-5.004v-1.251l.203-1.775.242-.969.281-2.26-.201-1.654-.283-.767-.322-1.776c-.322-3.107-1.977-5.367-4.924-6.618-.727-.323-1.371-.646-1.936-1.049-1.293-1.009-2.826-1.574-4.521-1.574l-1.049.081-3.309-.525-1.977-.202-2.704.524-2.018.404c-1.13.121-2.502.645-4.157 1.573l-2.502 1.897-.404.525-.605.645c-.726.727-1.13 1.615-1.13 2.704-.001 1.858.726 3.109 2.259 3.835zm-72.72 56.074c-2.018 0-3.793.605-5.166 1.775-1.413 1.211-2.139 2.664-2.139 4.359 0 2.299 1.775 4.398 5.407 6.254l1.897 1.01 3.309 2.098c.525.605.807 1.291.807 2.219 0 1.131-.484 2.141-1.332 2.986-.928.768-2.058 1.172-3.35 1.172-3.228 0-5.408-1.695-6.457-5.086h-.401l-.122 5.045c2.543 1.373 4.924 2.018 7.103 2.018 2.301 0 4.238-.727 5.812-2.098 1.493-1.373 2.3-3.148 2.3-5.207 0-1.533-.403-2.703-1.21-3.672-.727-1.008-2.139-1.977-4.197-2.986l-2.099-.969c-2.583-1.25-3.915-2.582-3.915-3.914 0-.969.364-1.816 1.09-2.422.686-.645 1.614-1.008 2.744-1.008 2.179 0 4.076 1.332 5.65 4.035h.282l.041-4.156c-2.341-.969-4.399-1.453-6.054-1.453zm23.083 9.16v-3.551c-1.533-.605-3.027-.928-4.601-.928-2.704 0-4.883.928-6.537 2.703-1.736 1.775-2.583 4.035-2.583 6.779 0 2.826.807 5.125 2.381 6.941 1.574 1.775 3.632 2.705 6.174 2.705 1.856 0 3.591-.605 5.206-1.736l.484-2.502-.121-.08c-1.412 1.533-2.945 2.34-4.56 2.34-1.695 0-3.107-.727-4.076-2.26-1.009-1.453-1.533-3.43-1.533-6.014 0-2.219.484-3.994 1.453-5.326 1.009-1.371 2.3-2.018 3.955-2.018 1.776 0 3.147.969 4.076 2.945h.282v.002zm1.453-18.037c.565.605.929 1.773.929 3.43v25.223c0 1.773-.364 2.945-1.09 3.551v.08h6.013v-.08c-.726-.646-1.049-1.857-1.049-3.471v-7.346c0-3.793 1.493-5.73 4.479-5.73 1.453 0 2.421.404 3.027 1.211.525.848.807 2.342.807 4.52v10.896h4.843v-.08c-.727-.605-1.09-1.777-1.09-3.471v-7.668c-.081-5.004-2.139-7.506-6.134-7.506-2.099 0-4.076.848-5.933 2.502v-16.184h-4.802v.123zm33.656 14.043h-1.978l-4.358 13.559-3.35-11.258-.121-.93c0-.523.242-1.008.727-1.332v-.119h-6.215v.119c.928.605 1.896 2.584 2.906 6.055l3.632 12.146h2.825l3.955-12.268 3.632 12.268h2.744l4.802-14.77c.606-1.775 1.534-2.906 2.785-3.35v-.121H75.03v.121c.848.201 1.251.766 1.251 1.654l-.605 2.422-3.107 9.361-3.996-13.557zm44.392 1.775l3.227-.08-10.047 16.545h14.729l.445-4.277h-.203c-.645 1.049-1.291 1.695-1.936 2.018l-3.189.525h-4.479l9.967-16.467h-12.711l-.686 3.754h.201c.807-1.373 2.381-2.018 4.682-2.018zm9.926-15.818c.688.605 1.01 1.773 1.01 3.43v25.223c0 1.773-.402 2.945-1.131 3.551v.08h6.014v-.08c-.727-.646-1.049-1.857-1.049-3.471v-6.457l7.506 10.008h5.205v-.08l-9.281-11.785 7.344-6.336v-.119h-5.971v.119c.402.121.605.484.605 1.01 0 1.049-1.414 2.744-4.117 5.045l-1.291 1.129v-21.389h-4.844v.122zm65.416 3.631c-2.301 0-3.873.646-4.842 2.018-1.01 1.332-1.453 3.551-1.453 6.779v1.654h-1.252l-.604 1.736 1.855-.08v12.793c0 1.775-.322 2.945-1.049 3.672v.08h5.932v-.08c-.727-.605-1.09-1.777-1.09-3.471l-.039-12.994h2.945l.322-1.656h-3.229v-5.77c0-2.059.686-3.107 1.938-3.107.646 0 1.17.322 1.574.969h.08l.525-2.342-1.613-.201zm-91.08 10.451c.604.605.928 1.775.928 3.512v11.059c0 1.773-.324 2.945-1.049 3.551v.08h5.932v-.08c-.727-.646-1.09-1.857-1.09-3.471v-8.838c0-2.18.928-3.311 2.865-3.311.848 0 1.492.324 1.938 1.01h.16l.242-3.834c-2.018.121-3.752.969-5.205 2.623v-2.42h-4.721v.119zm-10.696 1.01c1.937 0 2.865.889 2.865 2.824 0 1.494-1.453 2.826-4.278 4.076-2.34 1.01-3.954 1.857-4.842 2.703-.847.848-1.251 1.896-1.251 3.311 0 1.291.484 2.42 1.332 3.268.928.85 2.059 1.252 3.43 1.252 1.897 0 3.834-.768 5.811-2.301v2.059h4.722v-.08c-.727-.605-1.049-1.777-1.049-3.551l-.081-8.637c0-2.381-.363-4.035-1.251-5.004-.847-.969-2.3-1.453-4.318-1.453-1.654 0-3.511.484-5.569 1.371l-.646 3.311h.403c1.373-2.1 2.947-3.149 4.722-3.149zm3.067 6.053v5.246c0 2.705-1.251 4.035-3.712 4.035-.847 0-1.493-.322-2.099-.928-.605-.605-.847-1.332-.847-2.178 0-.93.242-1.695.767-2.301.605-.605 1.574-1.332 3.107-2.1l2.784-1.774z"/><path d="M156.305 119.432c-1.855-1.896-4.076-2.824-6.779-2.824-2.824 0-5.205.928-7.102 2.824-1.938 1.855-2.826 4.156-2.826 6.941 0 2.703.889 5.043 2.826 6.98 1.896 1.896 4.197 2.826 6.98 2.826 2.744 0 5.045-.93 6.9-2.826 1.857-1.938 2.785-4.236 2.785-6.98.001-2.705-.927-5.004-2.784-6.941zm-7.182-1.252c1.734 0 3.105.809 4.156 2.463 1.008 1.654 1.533 3.873 1.533 6.576 0 2.301-.484 4.076-1.412 5.408-.928 1.373-2.18 2.018-3.754 2.018-1.695 0-3.066-.846-4.197-2.502-1.129-1.613-1.654-3.793-1.654-6.457 0-2.219.525-4.074 1.533-5.447.969-1.372 2.221-2.059 3.795-2.059zm27.481 1.05c-1.451-1.615-3.309-2.422-5.527-2.422-2.381 0-4.277.928-5.689 2.703v-2.299h-4.803v.119c.686.605 1.008 1.775 1.008 3.512v24.293c0 1.695-.322 2.906-1.049 3.553v.119h5.932v-.119c-.727-.605-1.088-1.775-1.088-3.471v-10.492a7.567 7.567 0 004.156 1.211c2.582 0 4.68-1.01 6.457-3.068 1.775-2.018 2.703-4.479 2.703-7.344-.001-2.584-.727-4.64-2.1-6.295zm-7.102-.445c1.574 0 2.824.727 3.793 2.1.928 1.453 1.412 3.389 1.412 5.689 0 2.34-.484 4.277-1.453 5.73-1.008 1.371-2.26 2.098-3.914 2.098-2.541 0-3.873-1.371-3.953-4.236v-5.973c0-3.632 1.412-5.408 4.115-5.408z"/></g></svg><svg fill="none" viewBox="0 0 18 18" id="search" xmlns="http://www.w3.org/2000/svg"><path d="M17 17l-3.867-3.867m2.09-5.022A7.111 7.111 0 111 8.111a7.111 7.111 0 0114.222 0z" stroke="#111" stroke-width="1.5" stroke-linecap="round" stroke-linejoin="round"/></svg><svg fill="none" viewBox="0 0 18 20" id="secure" xmlns="http://www.w3.org/2000/svg"><path d="M4.6 9.1V5.5a4.5 4.5 0 019 0v3.6m-10.8 0h12.6a1.8 1.8 0 011.8 1.8v6.3a1.8 1.8 0 01-1.8 1.8H2.8A1.8 1.8 0 011 17.2v-6.3a1.8 1.8 0 011.8-1.8z" stroke="#FF6F61" stroke-width="1.5" stroke-linecap="round" stroke-linejoin="round"/></svg><svg fill="none" viewBox="0 0 448 237" id="shape1" xmlns="http://www.w3.org/2000/svg"><path d="M448 0c-16.302 19.804-31.688 36.983-33.987 39.202-11.95 11.546-24.813 23.411-39.842 30.719-11.77 5.73-23.88 11.404-36.015 16.277-22.611 9.087-45.164 17.764-67.352 27.944-24.588 11.289-46.856 27.826-69.218 42.982-12.88 8.73-25.815 17.377-38.136 26.887-11.313 8.712-24.044 15.312-35.232 24.163-7.776 6.139-17.05 9.486-26.168 13.253-22.76 9.399-46.988 12.909-71.402 14.782-10.689.825-20.618 1.051-30.648.457V0h448z" fill="#2B2B2B"/></svg><svg fill="none" viewBox="0 0 331 345" id="shape2" xmlns="http://www.w3.org/2000/svg"><g filter="url(#avfilter0_d)"><path d="M331 0c-1.393.007-2.778.032-4.169.068h-.007c-6.172.17-12.281.664-17.884 1.524-14.723 2.26-31.872 4.966-45.759 10.399l-.005.007c-.304.107-.603.229-.9.35-23.367 9.439-48.064 15.005-69.533 28.459-21.163 13.252-40.723 27.307-62.219 39.985-27.923 16.476-52.462 34.415-75.367 57.249-19.228 19.169-34.765 50.948-42.252 76.239a172.543 172.543 0 00-2.553 9.646c-6.521 27.681-6.446 56.081-6.32 84.523.056 12.596 2.9 24.47 4.757 36.551H331V0z" fill="#2B2B2B"/></g><defs><filter id="avfilter0_d" x="0" y="0" width="335" height="353" filterUnits="userSpaceOnUse" color-interpolation-filters="sRGB"><feFlood flood-opacity="0" result="BackgroundImageFix"/><feColorMatrix in="SourceAlpha" values="0 0 0 0 0 0 0 0 0 0 0 0 0 0 0 0 0 0 127 0"/><feOffset dy="4"/><feGaussianBlur stdDeviation="2"/><feColorMatrix values="0 0 0 0 0 0 0 0 0 0 0 0 0 0 0 0 0 0 0.25 0"/><feBlend in2="BackgroundImageFix" result="effect1_dropShadow"/><feBlend in="SourceGraphic" in2="effect1_dropShadow" result="shape"/></filter></defs></svg><svg fill="none" viewBox="0 0 20 20" id="styles" xmlns="http://www.w3.org/2000/svg"><path d="M18.454 11.716l-6.732 6.733a1.877 1.877 0 01-2.657 0L1 10.391V1h9.389l8.065 8.067a1.879 1.879 0 010 2.649v0z" stroke="#FF6F61" stroke-width="1.5" stroke-linecap="round" stroke-linejoin="round"/></svg><svg fill="none" viewBox="0 0 17 14" id="truck" xmlns="http://www.w3.org/2000/svg"><path d="M11.227 9.667V1H1v8.667h10.227zm0 0H16V6.333l-2.046-2h-2.727v5.334zm-5.454 1.666c0 .92-.763 1.667-1.705 1.667-.941 0-1.704-.746-1.704-1.667 0-.92.763-1.666 1.704-1.666.942 0 1.705.746 1.705 1.666zm8.863 0c0 .92-.763 1.667-1.704 1.667-.942 0-1.705-.746-1.705-1.667 0-.92.763-1.666 1.705-1.666.941 0 1.704.746 1.704 1.666z" stroke="#111" stroke-width="1.1" stroke-linecap="round" stroke-linejoin="round"/></svg><svg fill="none" viewBox="0 0 24 20" id="truck2" xmlns="http://www.w3.org/2000/svg"><path d="M16 14V1H1v13h15zm0 0h7V9l-3-3h-4v8zm-8 2.5a2.5 2.5 0 11-5 0 2.5 2.5 0 015 0zm13 0a2.5 2.5 0 11-5 0 2.5 2.5 0 015 0z" stroke="#FF6F61" stroke-width="1.5" stroke-linecap="round" stroke-linejoin="round"/></svg><svg viewBox="0 0 512 512" id="ua" xmlns="http://www.w3.org/2000/svg"><circle cx="256" cy="256" r="256" fill="#ffda44"/><path d="M0 256C0 114.616 114.616 0 256 0s256 114.616 256 256" fill="#338af3"/></svg><svg fill="none" viewBox="0 0 14 14" id="usa" xmlns="http://www.w3.org/2000/svg"><path d="M7 14A7 7 0 107 0a7 7 0 000 14z" fill="#F5F5F5"/><path d="M6.696 7H14c0-.632-.084-1.244-.241-1.826H6.696V7zM6.696 3.348h6.277a7.037 7.037 0 00-1.616-1.826H6.697v1.826zM7 14a6.97 6.97 0 004.357-1.522H2.643A6.97 6.97 0 007 14zM1.027 10.652h11.946c.344-.561.61-1.175.786-1.826H.24a6.96 6.96 0 00.786 1.826z" fill="#D80027"/><path d="M3.243 1.093h.637l-.593.431.227.698-.594-.431-.593.43.196-.602c-.523.435-.98.945-1.358 1.513h.205l-.378.275a6.985 6.985 0 00-.17.299l.18.555-.336-.245c-.083.178-.16.359-.229.544l.2.611h.733l-.594.431.227.698-.593-.431-.356.258A7.068 7.068 0 000 7h7V0a6.967 6.967 0 00-3.757 1.093zm.27 5.207l-.593-.431-.593.431.227-.698-.594-.43h.734l.226-.698.227.697h.733l-.593.431.227.698zm-.226-2.737l.227.698-.594-.431-.593.43.227-.697-.594-.43h.734l.226-.698.227.697h.733l-.593.431zM6.025 6.3l-.594-.431-.593.431.227-.698-.594-.43h.734l.226-.698.227.697h.733l-.593.431.227.698zm-.227-2.737l.227.698-.594-.431-.593.43.227-.697-.594-.43h.734l.226-.698.227.697h.733l-.593.431zm0-2.039l.227.698-.594-.431-.593.43.227-.697-.594-.43h.734L5.43.395l.227.697h.733l-.593.431z" fill="#0052B4"/></svg><svg fill="none" viewBox="0 0 17 19" id="user" xmlns="http://www.w3.org/2000/svg"><path d="M16 18v-1.889a3.792 3.792 0 00-1.098-2.671 3.736 3.736 0 00-2.652-1.107h-7.5c-.995 0-1.948.398-2.652 1.107A3.792 3.792 0 001 16.11V18M12.25 4.778c0 2.086-1.679 3.778-3.75 3.778-2.071 0-3.75-1.692-3.75-3.778C4.75 2.69 6.429 1 8.5 1c2.071 0 3.75 1.691 3.75 3.778z" stroke="#111" stroke-width="1.5" stroke-linecap="round" stroke-linejoin="round"/></svg><svg viewBox="0 0 511.999 511.999" id="view" xmlns="http://www.w3.org/2000/svg"><path d="M508.745 246.041c-4.574-6.257-113.557-153.206-252.748-153.206S7.818 239.784 3.249 246.035a16.896 16.896 0 000 19.923c4.569 6.257 113.557 153.206 252.748 153.206s248.174-146.95 252.748-153.201a16.875 16.875 0 000-19.922zM255.997 385.406c-102.529 0-191.33-97.533-217.617-129.418 26.253-31.913 114.868-129.395 217.617-129.395 102.524 0 191.319 97.516 217.617 129.418-26.253 31.912-114.868 129.395-217.617 129.395z"/><path d="M255.997 154.725c-55.842 0-101.275 45.433-101.275 101.275s45.433 101.275 101.275 101.275S357.272 311.842 357.272 256s-45.433-101.275-101.275-101.275zm0 168.791c-37.23 0-67.516-30.287-67.516-67.516s30.287-67.516 67.516-67.516 67.516 30.287 67.516 67.516-30.286 67.516-67.516 67.516z"/></svg><svg fill="none" viewBox="0 0 43 24" id="visa" xmlns="http://www.w3.org/2000/svg"><path fill="#fff" d="M.001 0h42.462v24H.001z"/><path d="M0 21.23h42.462V24H0v-2.77z" fill="#F7B600"/><path d="M0 2.77h42.462V0H0v2.77zM20.63 7.548l-1.912 8.938h-2.312l1.912-8.938h2.312zm9.728 5.772l1.217-3.357.7 3.357h-1.917zm2.58 3.166h2.139l-1.868-8.938h-1.973c-.444 0-.819.258-.984.656l-3.47 8.282h2.428l.482-1.335h2.967l.28 1.335zm-6.036-2.918c.01-2.359-3.26-2.49-3.239-3.543.008-.32.313-.662.98-.749.332-.043 1.246-.077 2.281.4l.405-1.896a6.234 6.234 0 00-2.162-.395c-2.286 0-3.894 1.214-3.907 2.954-.015 1.287 1.148 2.005 2.023 2.433.902.438 1.204.72 1.2 1.11-.006.6-.72.866-1.383.876-1.163.018-1.837-.315-2.375-.565l-.42 1.96c.542.247 1.539.462 2.571.474 2.43 0 4.02-1.2 4.026-3.059zm-9.576-6.02l-3.747 8.938h-2.444L9.292 9.353c-.112-.438-.21-.6-.55-.785-.556-.302-1.474-.585-2.28-.76l.054-.26h3.935c.5 0 .952.334 1.066.911l.974 5.173 2.406-6.084h2.429z" fill="#1A1F71"/></svg></svg>