<?xml version="1.0" encoding="utf-8"?><!DOCTYPE svg PUBLIC "-//W3C//DTD SVG 1.1//EN" "http://www.w3.org/Graphics/SVG/1.1/DTD/svg11.dtd"><svg viewBox="0 0 2000 2000" xmlns="http://www.w3.org/2000/svg" xmlns:xlink="http://www.w3.org/1999/xlink"><style>:root>svg{display:none}:root>svg:target{display:block}</style><svg viewBox="0 0 512 512" id="bag" xmlns="http://www.w3.org/2000/svg"><path d="M510.729 403.891l-36.986-221.826h-85.978L343.019 0H168.981l-44.747 182.064H38.256L1.271 403.891c-4.496 26.968 3.061 54.4 20.735 75.265C39.689 500.028 65.522 512 92.884 512h326.232c27.362 0 53.195-11.972 70.878-32.845 17.674-20.864 25.232-48.297 20.735-75.264zm-196.267-74.206c-6.687-26.038-30.362-45.338-58.462-45.338s-51.774 19.3-58.462 45.338h-31.557l-85.558-117.62h351.153l-85.558 117.62zm-28.113 15c0 16.729-13.615 30.339-30.35 30.339s-30.349-13.61-30.349-30.339 13.614-30.338 30.349-30.338 30.35 13.609 30.35 30.338zM192.502 30h126.997l37.373 152.064H155.128zm274.6 429.765A62.775 62.775 0 01419.116 482H92.884a62.775 62.775 0 01-47.986-22.235 62.714 62.714 0 01-14.034-50.94l29.012-174.006 90.829 124.867h46.833c6.687 26.038 30.362 45.339 58.462 45.339s51.775-19.301 58.462-45.339h46.833l90.829-124.867 29.012 174.006a62.715 62.715 0 01-14.034 50.94z"/></svg><svg fill="none" viewBox="0 0 1366 650" id="bg" xmlns="http://www.w3.org/2000/svg"><path fill="#1F1F1F" d="M0 0h1366v650H0z"/><path d="M1366 305c-1.39.007-2.78.032-4.17.068h-.01c-6.17.17-12.28.664-17.88 1.524-14.72 2.261-31.87 4.966-45.76 10.399v.007c-.31.107-.61.229-.9.35-23.37 9.439-48.07 15.005-69.54 28.459-21.16 13.252-40.72 27.307-62.22 39.985-27.92 16.476-52.46 34.415-75.36 57.249-19.23 19.169-34.77 50.948-42.26 76.239-.94 3.204-1.79 6.425-2.55 9.646-6.52 27.681-6.44 56.081-6.32 84.523.06 12.596 2.9 24.47 4.76 36.551H1366V305zM448 0c-16.302 19.804-31.688 36.983-33.987 39.202-11.95 11.546-24.813 23.411-39.842 30.719-11.77 5.73-23.88 11.404-36.015 16.277-22.611 9.087-45.164 17.764-67.352 27.944-24.588 11.289-46.856 27.826-69.218 42.982-12.88 8.73-25.815 17.377-38.136 26.887-11.313 8.712-24.044 15.312-35.232 24.163-7.776 6.139-17.05 9.486-26.168 13.253-22.76 9.399-46.988 12.909-71.402 14.782-10.689.825-20.618 1.051-30.648.457V0h448z" fill="#2B2B2B"/></svg><svg viewBox="0 0 512.002 512.002" id="boy-shirt" xmlns="http://www.w3.org/2000/svg"><path d="M500.609 161.212c-1.529-3.866.828-.474-45.478-53.508a7.518 7.518 0 10-11.321 9.895l20.945 23.964-64.695 50.445c-4.912-.377-9.513 2.766-10.755 7.751l-.228.914.072.018c-3.19 12.036-6.424 38.024-7.754 52.173-11.12 118.92 16.246 204.99 15.701 211.059-.327 3.642-2.358 7.028-5.78 8.753-7.761 3.505-18.605 7.189-26.727 9.641a7.519 7.519 0 004.272 14.416c9.078-2.744 23.651-7.845 29.037-10.538 10.969-5.391 16.435-17.897 13.49-29.732-20.96-84.16-22.078-175.126-9.413-243.758 10.501 12.183 10.211 11.919 11.373 12.975 6.224 5.616 15.695 6.515 23.117 1.051.1-.071 59.997-47.092 61.534-48.95a16.393 16.393 0 002.61-16.569zm-14.398 7.194c-62.228 49.014-59.013 46.866-60.483 46.944-2.696.165-2.722-1.879-13.494-13.769l62.43-48.678c12.653 14.477 12.034 13.586 12.088 14.253-.016.379-.146.938-.541 1.25z"/><circle cx="256.121" cy="140.735" r="9.647"/><circle cx="256.121" cy="175.503" r="9.647"/><path d="M338.247 496.614c-.729-4.089-4.632-6.814-8.721-6.079-42.077 7.517-71.938 5.954-91.362 5.927v.002c-43.16-2.313-67.032-7.275-90.822-14.237-25.838-7.68-31.5-10.451-32.201-18.306-.547-6.084 21.332-76.721 18.172-168.328-.098-4.129-3.504-7.373-7.648-7.338a7.518 7.518 0 00-7.384 7.649l.006.207c1.264 54.581-4.654 109.015-17.441 160.353-2.813 11.305 1.739 24.912 16.006 30.837 38.344 15.634 79.315 22.495 120.534 24.177v-.001c20.79 1.434 59.907.091 94.783-6.142a7.515 7.515 0 006.078-8.721zM432.045 81.29c-5.588-5.506-13.987-19.778-34.489-28.23l-43.389-17.881c-18.111-24.322-19.823-28.072-28.03-32.187-12.25-4.665 3.822-1.876-105.933-2.868-24.22-.217-28.475-.742-36.846 4.609-8.219 5.251-9 9.427-23.726 28.346l-1.563 2.099-43.389 17.883a70.986 70.986 0 00-26.268 18.822C8.945 162.859 8.7 159.687 10.726 170.328c.663 3.672 2.613 7.112 5.993 9.888 63.405 49.955 60.166 48.083 64.895 49.448 14.687 4.302 20.68-8.706 28.645-16.957 2.845 15.424 4.919 32.483 6.222 48.591a7.518 7.518 0 1014.986-1.214c-1.4-17.233-4.703-44.901-8.31-59.417-.137-.27-.787-6.17-7.013-8.186a10.338 10.338 0 00-3.969-.471l-64.696-50.445 52.253-59.787c13.557-15.514 27.833-16.469 60.485-31.222l46.492 64.784c2.728 3.802 6.634 6.266 10.998 6.937 10.089 1.537 12.754-4.627 38.394-22.53 26.369 18.577 28.208 23.467 36.346 23.467 4.971 0 9.578-2.657 12.211-6.387l47.367-66.266 39.799 16.401c16.572 6.832 23.219 18.551 28.9 24.224a7.519 7.519 0 0011.321-9.896zM100 201.58c-11.712 13.584-12.023 15.325-15.361 13.008-60.445-47.623-60.254-46.601-58.808-48.254l11.739-13.431L100 201.58zM340.074 41.427l-.211-.282.211.282zm-31.736-26.185l-19.322 23.432h-65.798l-19.459-23.598c12.843-.096 38.579.613 104.579.166zm-88.349 92.172c-.986-.152 1.386 2.323-47.821-65.995 6.299-8.41 15.108-20.457 16.058-21.418L245.28 89.06a4.576 4.576 0 00-.006-.007c-25.787 19.008-24.659 18.453-25.285 18.361zm15.627-53.706h41.003L256.117 78.57l-20.501-24.862zm56.823 54.336l-25.495-18.972 57.061-69.075 16.068 21.43c-49.797 69.651-47.474 66.445-47.634 66.617z"/></svg><svg viewBox="0 0 512.001 512.001" id="cancel" xmlns="http://www.w3.org/2000/svg"><path d="M284.286 256.002L506.143 34.144c7.811-7.811 7.811-20.475 0-28.285-7.811-7.81-20.475-7.811-28.285 0L256 227.717 34.143 5.859c-7.811-7.811-20.475-7.811-28.285 0-7.81 7.811-7.811 20.475 0 28.285l221.857 221.857L5.858 477.859c-7.811 7.811-7.811 20.475 0 28.285a19.938 19.938 0 0014.143 5.857 19.94 19.94 0 0014.143-5.857L256 284.287l221.857 221.857c3.905 3.905 9.024 5.857 14.143 5.857s10.237-1.952 14.143-5.857c7.811-7.811 7.811-20.475 0-28.285L284.286 256.002z"/></svg><svg fill="none" viewBox="0 0 21 20" id="cart" xmlns="http://www.w3.org/2000/svg"><path d="M8.773 18.143a.86.86 0 01-.864.857m.864-.857a.86.86 0 00-.864-.857m.864.857H7.045M7.91 19a.86.86 0 01-.864-.857M7.91 19v-.857-.857m-.864.857a.86.86 0 01.864-.857m10.364.857a.86.86 0 01-.864.857m.864-.857a.86.86 0 00-.864-.857m.864.857h-1.727m.863.857a.86.86 0 01-.863-.857m.863.857v-1.714m-.863.857a.86.86 0 01.863-.857M1 1h3.455l2.314 11.477c.08.395.295.75.611 1.002s.711.386 1.116.378h8.395c.405.008.8-.126 1.116-.378.316-.253.532-.607.611-1.002L20 5.286H5.318" stroke="#111" stroke-width="1.5" stroke-linecap="round" stroke-linejoin="round"/></svg><svg fill="none" viewBox="0 0 22 16" id="chart" xmlns="http://www.w3.org/2000/svg"><path d="M7.538 7.782c1.822 0 3.307-1.09 3.307-2.427s-1.48-2.428-3.307-2.428c-1.826 0-3.307 1.091-3.307 2.428 0 1.336 1.486 2.427 3.307 2.427zm0-3.992c1.326 0 2.423.715 2.423 1.565S8.851 6.92 7.538 6.92s-2.423-.716-2.423-1.565c0-.85 1.11-1.57 2.423-1.57v.005z" fill="#111"/><path d="M21.558 9.839h-6.526V5.35c0-2.949-3.364-5.35-7.516-5.35S0 2.401 0 5.35v5.304c0 2.716 2.852 4.958 6.526 5.299H6.6c.305.026.614.047.928.047h14.029a.437.437 0 00.442-.431v-5.3a.437.437 0 00-.442-.43zM7.538.866c3.648 0 6.632 2.014 6.632 4.489s-2.967 4.488-6.632 4.488C3.873 9.843.906 7.83.906 5.355.906 2.88 3.896.866 7.538.866zm6.632 7.002v1.97h-2.564c1-.442 1.874-1.118 2.542-1.97h.022zm6.946 7.27h-.885v-2.182a.437.437 0 00-.442-.431.437.437 0 00-.442.431v2.186H17.58v-1.186a.437.437 0 00-.442-.43.437.437 0 00-.443.43v1.186h-1.768v-1.186a.437.437 0 00-.442-.43.437.437 0 00-.442.43v1.186h-1.769v-2.186a.437.437 0 00-.442-.431.437.437 0 00-.442.431v2.186H9.696v-1.186a.437.437 0 00-.442-.43.437.437 0 00-.443.43v1.186H7.043v-1.186a.437.437 0 00-.442-.43.437.437 0 00-.443.43v1.083c-2.984-.432-5.23-2.234-5.23-4.39V7.87C2.193 9.553 4.682 10.7 7.56 10.7h13.556v4.437z" fill="#111"/></svg><svg aria-hidden="true" data-prefix="fas" data-icon="times" class="agsvg-inline--fa agfa-times agfa-w-11" viewBox="0 0 352 512" id="close" xmlns="http://www.w3.org/2000/svg"><path fill="currentColor" d="M242.72 256l100.07-100.07c12.28-12.28 12.28-32.19 0-44.48l-22.24-22.24c-12.28-12.28-32.19-12.28-44.48 0L176 189.28 75.93 89.21c-12.28-12.28-32.19-12.28-44.48 0L9.21 111.45c-12.28 12.28-12.28 32.19 0 44.48L109.28 256 9.21 356.07c-12.28 12.28-12.28 32.19 0 44.48l22.24 22.24c12.28 12.28 32.2 12.28 44.48 0L176 322.72l100.07 100.07c12.28 12.28 32.2 12.28 44.48 0l22.24-22.24c12.28-12.28 12.28-32.19 0-44.48L242.72 256z"/></svg><svg viewBox="-26 0 511 512" id="dress" xmlns="http://www.w3.org/2000/svg"><path d="M457.39 405.664c-77.23-77.21-139.847-186.848-148.16-201.695v-33.531c0-6.676 1.422-17.516 4.223-32.22.79-4.132-1.918-8.12-6.05-8.902a7.604 7.604 0 00-8.9 6.051c-2.163 11.305-3.523 20.375-4.132 27.461h-128.64c-2.254-25.89-13.958-71.996-16.868-83.2 2.79-6.503 7.145-10.776 13.254-13.05 19.649-7.285 52.985 7.652 64.168 14.027a7.63 7.63 0 007.54 0c11.195-6.375 44.534-21.324 64.19-14.027 6.098 2.274 10.454 6.555 13.255 13.05a1037.084 1037.084 0 00-6.352 25.81 7.612 7.612 0 1014.824 3.46c3.625-15.546 6.832-27.656 6.871-27.777a7.668 7.668 0 00-.191-4.504c-3.32-9.34-8.758-16.34-16.207-20.937-.7-10.575-4.598-36.04-25.422-53.848a7.612 7.612 0 00-11.5 1.906c-.66 1.106-15.121 25.79-17.18 50.813-1.156.379-2.324.754-3.511 1.168-9.805 3.379-18.016 7.308-22.54 9.64-4.539-2.332-12.738-6.261-22.55-9.64-1.18-.414-2.344-.79-3.512-1.168-2.063-25.024-16.512-49.707-17.172-50.813A7.606 7.606 0 00181.52.105a7.59 7.59 0 00-6.192 1.727c-20.832 17.809-24.73 43.281-25.422 53.848-7.449 4.597-12.886 11.597-16.207 20.937a7.604 7.604 0 00-.183 4.504c.175.649 17.375 65.711 17.375 89.317v33.53c-8.32 14.848-70.938 124.485-148.168 201.696a7.57 7.57 0 00-2.211 5.762 7.575 7.575 0 002.777 5.512c.836.68 19.234 15.578 51.07 32.234-.011 0-.02.008-.02.02a7.593 7.593 0 00-1.562 5.785 7.608 7.608 0 003.106 5.113c.586.426 14.64 10.414 38.949 21.586 1.035.469 2.11.699 3.176.699a7.626 7.626 0 006.922-4.434c1.754-3.824.082-8.343-3.735-10.097-13.468-6.192-23.656-12.035-29.797-15.813 61.957-81.289 110.426-193.035 110.914-194.183a7.606 7.606 0 00-3.968-9.996 7.61 7.61 0 00-10.008 3.98c-.477 1.094-45.953 105.898-104.602 185.047-20.754-10.695-35.976-20.863-44.093-26.691C92.395 335.171 151.043 234.59 162.957 213.55h134.195c11.926 21.039 70.575 121.62 143.328 196.637-8.097 5.816-23.289 15.976-44.093 26.69-58.66-79.148-104.137-183.952-104.614-185.046-1.652-3.867-6.14-5.644-9.996-3.98a7.6 7.6 0 00-3.976 9.996c.496 1.148 48.965 112.882 110.914 194.175-19.508 11.973-80.113 44.754-158.653 44.754-33.777 0-67.855-5.976-101.285-17.77a7.605 7.605 0 00-9.71 4.65c-1.391 3.956.69 8.308 4.648 9.71C158.777 505.727 194.562 512 230.062 512c100.43 0 171.204-49.79 174.168-51.91a7.58 7.58 0 003.106-5.113 7.602 7.602 0 00-1.55-5.786l-.024-.02c31.828-16.655 50.226-31.554 51.058-32.233a7.633 7.633 0 002.793-5.512 7.637 7.637 0 00-2.222-5.762zM281.747 20.524c7.887 9.968 11.133 21.464 12.465 29.492-6.649-1.004-14.098-.801-22.285.609 1.816-11.406 6.308-22.621 9.82-30.102zm-103.371 0c3.512 7.48 7.996 18.695 9.824 30.101-8.191-1.41-15.64-1.613-22.289-.61 1.332-8.027 4.57-19.523 12.465-29.492zm115.633 177.804H166.113v-20.277h127.895zm0 0"/></svg><svg fill="none" viewBox="0 0 43 24" id="express" xmlns="http://www.w3.org/2000/svg"><path fill="#006FCF" d="M0 0h42.462v24H0z"/><path d="M34.123 10.528h2.547V4.615h-2.771v.824l-.525-.824h-2.396v1.048l-.45-1.048H26.11c-.15 0-.3.075-.45.075-.15 0-.224.075-.374.15s-.225.075-.374.15v-.375H12.255l-.375.973-.374-.973H8.51v1.048l-.449-1.048H5.665L4.616 7.16v3.368h1.723l.3-.823h.598l.3.823h13.18V9.78l.525.748h3.67v-.449c.075.075.224.075.3.15.074.075.224.075.299.15.15.074.3.074.45.074h2.695l.3-.823h.599l.3.823h3.67v-.748l.598.823zm4.12 7.485v-5.539H17.646l-.524.748-.524-.748h-5.992v5.913H16.6l.524-.749.524.749h3.745v-1.273h-.15c.524 0 .974-.074 1.348-.224v1.572h2.696v-.749l.524.749h11.16c.449-.15.898-.225 1.272-.45z" fill="#fff"/><path d="M36.968 16.646h-2.022v.826h1.947c.824 0 1.348-.526 1.348-1.277 0-.751-.45-1.127-1.198-1.127h-.899c-.224 0-.374-.15-.374-.375 0-.226.15-.376.374-.376h1.723l.374-.826H36.22c-.824 0-1.348.526-1.348 1.202 0 .751.45 1.127 1.198 1.127h.9c.224 0 .373.15.373.375.075.3-.074.45-.374.45zm-3.67 0h-2.022v.826h1.948c.823 0 1.348-.526 1.348-1.277 0-.751-.45-1.127-1.199-1.127h-.898c-.225 0-.375-.15-.375-.375 0-.226.15-.376.375-.376h1.722l.374-.826H32.55c-.824 0-1.349.526-1.349 1.202 0 .751.45 1.127 1.199 1.127h.898c.225 0 .375.15.375.375.075.3-.15.45-.375.45zm-2.62-2.404v-.826h-3.146v3.981h3.145v-.826H28.43v-.827h2.172v-.826H28.43v-.75h2.247v.074zm-5.094 0c.375 0 .525.225.525.45 0 .226-.15.452-.525.452h-1.123v-.977l1.123.075zm-1.123 1.728h.45l1.198 1.427h1.123l-1.348-1.502c.674-.15 1.049-.601 1.049-1.202 0-.751-.525-1.277-1.349-1.277h-2.096v3.981h.898l.075-1.427zm-2.396-1.202c0 .3-.15.526-.525.526h-1.198v-1.052h1.123c.375 0 .6.225.6.526zm-2.622-1.352v3.981h.9v-1.352h1.197c.824 0 1.423-.526 1.423-1.352 0-.751-.524-1.352-1.348-1.352l-2.172.075zm-1.348 3.981h1.124l-1.573-2.028 1.573-1.953h-1.124l-.973 1.277-.974-1.277h-1.123l1.572 1.953-1.572 1.953h1.123l.974-1.277.973 1.352zm-3.37-3.155v-.826H11.58v3.981h3.145v-.826H12.48v-.827h2.171v-.826H12.48v-.75h2.246v.074zm18.199-7.06l1.573 2.403h1.123V5.604h-.899v2.629l-.224-.376-1.423-2.253h-1.199v3.981h.9V6.881l.149.3zm-3.894-.076l.3-.826.299.826.374.902h-1.348l.375-.902zm1.572 2.48h.974l-1.723-3.982h-1.198l-1.722 3.981h.973l.375-.826h1.947l.374.826zm-4.194 0l.375-.827h-.225c-.674 0-1.048-.45-1.048-1.127v-.075c0-.676.374-1.127 1.048-1.127h.974v-.826h-1.049c-1.198 0-1.872.826-1.872 1.953v.075c0 1.202.674 1.953 1.797 1.953zm-3.37 0h.899V5.678h-.899v3.906zM21.091 6.43c.374 0 .524.226.524.451s-.15.45-.524.45h-1.123v-.976l1.123.075zm-1.123 1.728h.449l1.198 1.427h1.124L21.39 8.083c.674-.15 1.048-.601 1.048-1.202 0-.751-.524-1.277-1.348-1.277h-2.097v3.981h.899l.075-1.427zM18.32 6.43v-.826h-3.145v3.981h3.145V8.76h-2.247v-.826h2.172v-.827h-2.172v-.75h2.247v.074zm-6.815 3.155h.824l1.123-3.23v3.23h.899V5.604h-1.498l-.899 2.704-.898-2.704H9.558v3.981h.898v-3.23l1.049 3.23zM6.637 7.106l.3-.826.3.826.374.902H6.262l.375-.902zm1.573 2.48h.973L7.461 5.603H6.337L4.615 9.585h.973l.375-.826H7.91l.3.826z" fill="#006FCF"/></svg><svg viewBox="0 0 512.003 512.003" id="goods-cart" xmlns="http://www.w3.org/2000/svg"><path d="M503.995 105.373c-6.868-8.498-17.076-13.371-28.004-13.371H85.737l-3.485-24.976C79.784 49.34 64.456 36.002 46.597 36.002H16c-8.836 0-16 7.164-16 16s7.164 16 16 16h30.597a4.016 4.016 0 013.961 3.447l43.189 309.529c2.468 17.687 17.796 31.024 35.655 31.024h17.349a47.774 47.774 0 00-2.752 16c0 26.467 21.533 48 48 48s48-21.533 48-48c0-5.609-.976-10.992-2.752-16h85.504a47.774 47.774 0 00-2.752 16c0 26.467 21.533 48 48 48s48-21.533 48-48c0-5.609-.976-10.992-2.752-16H448c8.836 0 16-7.164 16-16s-7.164-16-16-16H129.403a4.016 4.016 0 01-3.961-3.447l-3.984-28.553H436.56c16.858 0 31.663-11.965 35.205-28.458l39.429-183.997c2.291-10.681-.333-21.679-7.199-30.174zM208 428.002c0 8.822-7.178 16-16 16s-16-7.178-16-16 7.178-16 16-16 16 7.177 16 16zm176 0c0 8.822-7.178 16-16 16s-16-7.178-16-16 7.178-16 16-16 16 7.177 16 16zm95.905-299.163l-39.428 183.993a4.03 4.03 0 01-3.917 3.169H116.992l-26.79-192H475.99c1.583 0 2.569.808 3.117 1.486.547.677 1.129 1.808.798 3.352z"/></svg><svg viewBox="0 0 437.775 437.774" id="heart" xmlns="http://www.w3.org/2000/svg"><path d="M316.722 29.761c66.852 0 121.053 54.202 121.053 121.041 0 110.478-218.893 257.212-218.893 257.212S0 266.569 0 150.801c0-83.217 54.202-121.04 121.041-121.04 40.262 0 75.827 19.745 97.841 49.976 22.017-30.231 57.588-49.976 97.84-49.976z"/></svg><svg aria-hidden="true" data-prefix="far" data-icon="heart" class="alsvg-inline--fa alfa-heart alfa-w-16" viewBox="0 0 512 512" id="heart-regular" xmlns="http://www.w3.org/2000/svg"><path fill="currentColor" d="M458.4 64.3C400.6 15.7 311.3 23 256 79.3 200.7 23 111.4 15.6 53.6 64.3-21.6 127.6-10.6 230.8 43 285.5l175.4 178.7c10 10.2 23.4 15.9 37.6 15.9 14.3 0 27.6-5.6 37.6-15.8L469 285.6c53.5-54.7 64.7-157.9-10.6-221.3zm-23.6 187.5L259.4 430.5c-2.4 2.4-4.4 2.4-6.8 0L77.2 251.8c-36.5-37.2-43.9-107.6 7.3-150.7 38.9-32.7 98.9-27.8 136.5 10.5l35 35.7 35-35.7c37.8-38.5 97.8-43.2 136.5-10.6 51.1 43.1 43.5 113.9 7.3 150.8z"/></svg><svg viewBox="0 0 512 512" id="help" xmlns="http://www.w3.org/2000/svg"><path d="M277.332 384c0 11.781-9.55 21.332-21.332 21.332s-21.332-9.55-21.332-21.332 9.55-21.332 21.332-21.332 21.332 9.55 21.332 21.332zm0 0"/><path d="M256 512C114.836 512 0 397.164 0 256S114.836 0 256 0s256 114.836 256 256-114.836 256-256 256zm0-480C132.48 32 32 132.48 32 256s100.48 224 224 224 224-100.48 224-224S379.52 32 256 32zm0 0"/><path d="M256 314.668c-8.832 0-16-7.168-16-16v-21.547c0-20.308 12.887-38.508 32.043-45.27 25.492-8.98 42.625-36.14 42.625-55.851 0-32.363-26.305-58.668-58.668-58.668S197.332 143.637 197.332 176c0 8.832-7.168 16-16 16s-16-7.168-16-16c0-49.984 40.664-90.668 90.668-90.668s90.668 40.684 90.668 90.668c0 35.586-28.098 73.367-63.98 86.04-6.399 2.237-10.688 8.315-10.688 15.1v21.528c0 8.832-7.168 16-16 16zm0 0"/></svg><svg fill="none" viewBox="0 0 34 34" id="instagram" xmlns="http://www.w3.org/2000/svg"><path d="M24.5 2h-15A7.5 7.5 0 002 9.5v15A7.5 7.5 0 009.5 32h15a7.5 7.5 0 007.5-7.5v-15A7.5 7.5 0 0024.5 2z" stroke="#111" stroke-width="2.2" stroke-linecap="round" stroke-linejoin="round"/><path d="M23 16.055a6 6 0 11-11.87 1.76A6 6 0 0123 16.055z" stroke="#111" stroke-width="2.2" stroke-linecap="round" stroke-linejoin="round"/></svg><svg fill="none" viewBox="0 0 43 24" id="klarna" xmlns="http://www.w3.org/2000/svg"><path fill="#0074C8" d="M0 0h42.462v24H0z"/><path d="M10.437 8.308h-1.63a4.169 4.169 0 01-1.68 3.36l-.642.482 2.498 3.404h2.053L8.735 12.42a5.759 5.759 0 001.702-4.112zM6.281 8.308H4.616v7.246H6.28V8.308zM13.088 8.308h-1.57v7.246h1.57V8.308zM26.864 10.404c-.599 0-1.168.183-1.548.701v-.562h-1.49v5.01h1.512v-2.629c0-.76.511-1.132 1.124-1.132.658 0 1.038.394 1.038 1.125v2.644h1.497v-3.192c0-1.169-.927-1.965-2.133-1.965zM17.836 10.543v.321a2.643 2.643 0 10-1.49 4.828 2.61 2.61 0 001.49-.46v.322h1.497v-5.011h-1.497zm-1.366 3.79c-.752 0-1.358-.576-1.358-1.285 0-.708.606-1.285 1.358-1.285.752 0 1.359.577 1.359 1.285 0 .709-.607 1.286-1.359 1.286zM21.657 11.193v-.65h-1.534v5.01h1.54v-2.336c0-.79.855-1.213 1.447-1.213h.015v-1.46c-.607 0-1.17.262-1.468.65zM33.657 10.543v.321a2.643 2.643 0 10-1.49 4.828 2.61 2.61 0 001.49-.46v.322h1.497v-5.011h-1.497zm-1.366 3.79c-.752 0-1.359-.576-1.359-1.285 0-.708.607-1.285 1.359-1.285s1.359.577 1.359 1.285c.007.709-.607 1.286-1.36 1.286zM36.315 10.69c0-.074-.05-.117-.131-.117h-.139v.38h.066v-.14h.073l.058.14h.073l-.066-.154a.113.113 0 00.066-.11zm-.131.058h-.073v-.117h.073c.044 0 .066.022.066.058 0 .037-.015.059-.066.059z" fill="#fff"/><path d="M36.162 10.412a.358.358 0 00-.358.357c.008.198.161.358.358.358a.358.358 0 000-.715zm0 .65a.287.287 0 01-.285-.292c0-.161.132-.293.285-.293.161 0 .285.132.285.293 0 .16-.131.292-.285.292zM36.754 13.78a.945.945 0 00-.942.941c0 .519.424.943.942.943a.945.945 0 00.942-.943.94.94 0 00-.942-.942z" fill="#fff"/></svg><svg fill="none" viewBox="0 0 20 17" id="like" xmlns="http://www.w3.org/2000/svg"><path d="M17.612 2.326a4.756 4.756 0 00-1.537-.981 4.928 4.928 0 00-3.626 0 4.757 4.757 0 00-1.536.981L10 3.198l-.913-.872A4.852 4.852 0 005.737 1a4.852 4.852 0 00-3.35 1.326C1.5 3.175 1 4.326 1 5.526c0 1.201.5 2.352 1.388 3.201l.912.872L10 16l6.7-6.4.912-.873c.44-.42.79-.92 1.027-1.468a4.351 4.351 0 000-3.465 4.517 4.517 0 00-1.027-1.468v0z" stroke="#111" stroke-width="1.5" stroke-linecap="round" stroke-linejoin="round"/></svg><svg viewBox="0 0 24 24" id="lock" xmlns="http://www.w3.org/2000/svg"><path d="M18.75 9H18V6c0-3.309-2.691-6-6-6S6 2.691 6 6v3h-.75A2.253 2.253 0 003 11.25v10.5C3 22.991 4.01 24 5.25 24h13.5c1.24 0 2.25-1.009 2.25-2.25v-10.5C21 10.009 19.99 9 18.75 9zM8 6c0-2.206 1.794-4 4-4s4 1.794 4 4v3H8z"/></svg><svg viewBox="0 0 181 43" id="logo" xmlns="http://www.w3.org/2000/svg"><path fill-rule="evenodd" clip-rule="evenodd" d="M133.273 20.458h2.402c2.529 0 4.057-1.331 4.057-3.531s-1.527-3.531-4.057-3.531h-3.791v10.13h1.389v-3.068zm0-5.803h2.361c1.777 0 2.709.824 2.709 2.271s-.932 2.271-2.709 2.271h-2.361v-4.542zm19.463 7.612h-5.265v-8.871h-1.39v10.13h6.654v-1.259zm13.907-8.871h-1.347v5.701c0 2.244-1.001 3.257-2.751 3.257s-2.736-1.013-2.736-3.257v-5.701h-1.389v5.76c0 2.938 1.556 4.486 4.111 4.486 2.57 0 4.111-1.549 4.111-4.486v-5.76zm9.851 9.015c-1.25 0-2.486-.492-3.209-1.172l-.514 1.129c.777.752 2.236 1.273 3.723 1.273 2.57 0 3.764-1.332 3.764-2.88 0-3.719-5.889-2.171-5.889-4.646 0-.883.708-1.606 2.361-1.606.861 0 1.819.261 2.666.825l.459-1.158c-.806-.579-1.986-.896-3.125-.896-2.557 0-3.723 1.331-3.723 2.894 0 3.763 5.889 2.2 5.889 4.675 0 .882-.721 1.562-2.402 1.562zM40.72 35.642h.566v-3.648h2.321v3.648h.561v-4.167H40.72v4.167zm7.396-4.167h-1.561v4.167h.572V34.38h.989c1.041 0 1.669-.548 1.669-1.452 0-.906-.629-1.453-1.669-1.453zm-.017 2.386h-.972v-1.868h.972c.732 0 1.115.339 1.115.935 0 .594-.383.933-1.115.933zm5.48-2.433c-1.229 0-2.132.91-2.132 2.131 0 1.22.903 2.131 2.132 2.131 1.218 0 2.122-.905 2.122-2.131 0-1.227-.904-2.131-2.122-2.131zm0 3.732c-.897 0-1.561-.679-1.561-1.602s.663-1.602 1.561-1.602c.886 0 1.55.679 1.55 1.602s-.664 1.602-1.55 1.602zm6.481-3.418v-.422h-.532v.422c-1.349.054-2.127.709-2.127 1.811 0 1.095.778 1.75 2.127 1.803v.441h.532v-.441c1.35-.047 2.121-.701 2.121-1.803 0-1.096-.777-1.757-2.121-1.811zm-.532 3.151c-.995-.067-1.572-.52-1.572-1.34 0-.822.555-1.274 1.572-1.34v2.68zm.532 0v-2.68c1 .06 1.572.523 1.572 1.333 0 .822-.554 1.279-1.572 1.347zm4.714-1.115h2.007v-.506h-2.007v-1.279h2.253v-.519h-2.825v4.167h2.905v-.518h-2.333v-1.345zm6.19-1.821c.44 0 .817.154 1.126.494l.372-.376c-.366-.428-.903-.647-1.521-.647-1.218 0-2.121.897-2.121 2.131 0 1.232.903 2.131 2.115 2.131.624 0 1.161-.227 1.527-.655l-.372-.375c-.309.339-.686.5-1.126.5-.903 0-1.572-.679-1.572-1.602s.669-1.601 1.572-1.601zm5.246 0c.44 0 .817.154 1.126.494l.372-.376c-.366-.428-.903-.647-1.521-.647-1.218 0-2.121.897-2.121 2.131 0 1.232.903 2.131 2.115 2.131.624 0 1.161-.227 1.527-.655l-.372-.374c-.309.339-.686.5-1.126.5-.903 0-1.572-.679-1.572-1.602s.669-1.602 1.572-1.602zm3.994 2.732v-3.215h-.566v4.167h.526l2.373-3.209v3.209h.561v-4.167h-.526l-2.368 3.215zm7.081-3.261c-1.229 0-2.132.91-2.132 2.131 0 1.22.903 2.131 2.132 2.131 1.218 0 2.122-.905 2.122-2.131 0-1.227-.904-2.131-2.122-2.131zm0 3.732c-.897 0-1.561-.679-1.561-1.602s.663-1.602 1.561-1.602c.887 0 1.55.679 1.55 1.602s-.663 1.602-1.55 1.602zm7.059-1.894h-2.299v-1.791h-.571v4.167h.571v-1.856h2.299v1.856h.572v-4.167h-.572v1.791zm4.217-1.791l-1.813 4.167h.589l.44-1.042h2.127l.439 1.042h.602l-1.818-4.167h-.566zm-.583 2.649l.863-2.042.863 2.042h-1.726zm5.188-.893c-.045 1.291-.217 1.904-.715 1.904a.673.673 0 01-.183-.024l-.04.53c.137.036.246.048.36.048.789 0 1.034-.822 1.087-2.477l.039-1.22h1.773v3.648h.56v-4.167h-2.819l-.062 1.758zm7.024-.303h-1.188v-1.453h-.566v4.167h1.652c1 0 1.578-.476 1.578-1.398 0-.87-.526-1.316-1.476-1.316zm-.126 2.243h-1.063v-1.773h1.063c.669 0 1.029.268 1.029.857.001.601-.364.916-1.029.916zm6.459-1.905h-2.299v-1.791h-.572v4.167h.572v-1.856h2.299v1.856h.571v-4.167h-.571v1.791zm4.217-1.791l-1.813 4.167h.588l.441-1.042h2.127l.439 1.042h.601l-1.817-4.167h-.566zm-.584 2.649l.863-2.042.863 2.042h-1.726zm4.509-1.149c0 .673.32 1.149.886 1.346l-.886 1.321h.606l.801-1.22c.051.006.103.006.154.006h1.104v1.214h.561v-4.167h-1.607c-.984 0-1.619.547-1.619 1.5zm2.665-.982v1.934h-1.059c-.68 0-1.029-.345-1.029-.958 0-.644.384-.976 1.064-.976h1.024zm8.904-.518h-.612l-1.258 1.81h-.847v-1.81h-.561v4.167h.561v-1.834h.835l1.298 1.834h.652l-1.498-2.149 1.43-2.018zm3.731-.047c-1.229 0-2.133.91-2.133 2.131 0 1.22.903 2.131 2.133 2.131 1.218 0 2.121-.905 2.121-2.131 0-1.227-.903-2.131-2.121-2.131zm0 3.732c-.897 0-1.561-.679-1.561-1.602s.663-1.602 1.561-1.602c.887 0 1.549.679 1.549 1.602s-.662 1.602-1.549 1.602zm6.006-3.203c.441 0 .818.154 1.127.494l.371-.376c-.365-.428-.902-.647-1.521-.647-1.218 0-2.121.897-2.121 2.131 0 1.232.903 2.131 2.115 2.131.624 0 1.161-.227 1.526-.655l-.371-.374c-.309.339-.686.5-1.127.5-.902 0-1.572-.679-1.572-1.602s.67-1.602 1.573-1.602zm7.213-.482l-1.646 2.929-1.669-2.929h-.469v4.167h.549v-3.018l1.446 2.512h.264l1.445-2.53.006 3.036h.549l-.006-4.167h-.469zm3.433 2.303h2.007v-.506h-2.007v-1.279h2.253v-.519h-2.825v4.167h2.905v-.518h-2.333v-1.345zm3.822-1.785h1.367v3.648h.561v-3.648h1.372v-.519h-3.3v.519zm5.706 2.696v-3.215h-.566v4.167h.525l2.373-3.209v3.209h.561v-4.167h-.525l-2.368 3.215zm8.555-3.214h-.612l-1.257 1.81h-.847v-1.81h-.561v4.167h.561v-1.834h.835l1.298 1.834h.652l-1.498-2.149 1.429-2.018zm3.754 0h-.565l-1.813 4.167h.589l.44-1.042h2.127l.439 1.042h.601l-1.818-4.167zm-1.149 2.649l.863-2.042.863 2.042h-1.726zM46.735 9.369h-6.144V23.37h3.802v-3.66h2.342c3.667 0 5.972-1.98 5.972-5.161 0-3.2-2.304-5.18-5.972-5.18zm-.23 7.22h-2.112v-4.101h2.112c1.575 0 2.362.761 2.362 2.061 0 1.28-.787 2.04-2.362 2.04zm11.714 1.801c0-1.9 1.018-2.681 2.496-2.681.269 0 .499.021.826.061v-3.42c-1.536 0-2.746.499-3.495 1.479v-1.3H54.57V23.37h3.648v-4.98zm9.927-6.04c-3.283 0-5.722 2.319-5.722 5.58 0 3.24 2.4 5.62 6.106 5.62 1.978 0 3.437-.6 4.435-1.76l-1.92-2.08c-.71.64-1.382.939-2.4.939-1.344 0-2.247-.64-2.554-1.739h7.565c.019-.301.058-.661.058-.94.001-3.581-2.495-5.62-5.568-5.62zm-2.111 4.559c.211-1.14.998-1.86 2.131-1.86 1.133 0 1.939.721 2.131 1.86h-4.262zm12.174-1.1c0-.399.442-.76 1.67-.76.922 0 1.958.2 2.996.8l1.094-2.58c-1.037-.6-2.649-.919-4.109-.919-3.264 0-5.069 1.56-5.069 3.6 0 4.341 6.144 2.681 6.144 4.141 0 .46-.403.74-1.632.74-1.268 0-2.669-.381-3.629-1l-1.095 2.6c1.018.66 2.842 1.12 4.608 1.12 3.379 0 5.146-1.56 5.146-3.561.001-4.301-6.124-2.68-6.124-4.181zm13.979 4.461c-.308.221-.71.341-1.114.341-.652 0-1.094-.44-1.094-1.24V15.77h2.381v-2.841H89.98v-2.82h-3.648v2.82h-1.517v2.841h1.517v3.641c0 2.779 1.555 4.14 4.224 4.14.959 0 1.901-.2 2.535-.62l-.903-2.661zm2.305 3.1h3.648V12.529h-3.648V23.37zm1.824-12.041c1.344 0 2.228-.881 2.228-2.08 0-1.141-.884-1.96-2.228-1.96-1.345 0-2.228.879-2.228 2.02.001 1.139.884 2.02 2.228 2.02zm11.906 2.521c-.711-1.021-1.824-1.5-3.265-1.5-2.765 0-5.107 2.039-5.107 5.22 0 3.2 2.343 5.241 5.107 5.241 1.325 0 2.381-.42 3.091-1.28v.359c0 1.701-.825 2.62-2.783 2.62-1.229 0-2.65-.44-3.514-1.16l-1.325 2.661c1.267.939 3.168 1.42 5.165 1.42 3.879 0 6.105-1.94 6.105-6.041v-8.86h-3.475v1.32zm-2.401 5.939c-1.306 0-2.285-.899-2.285-2.22s.979-2.2 2.285-2.2c1.305 0 2.266.88 2.266 2.2s-.961 2.22-2.266 2.22zm18.856-1.819c0-3.581-2.496-5.62-5.567-5.62-3.284 0-5.722 2.319-5.722 5.58 0 3.24 2.4 5.62 6.105 5.62 1.978 0 3.438-.6 4.436-1.76l-1.92-2.08c-.711.64-1.383.939-2.4.939-1.344 0-2.246-.64-2.554-1.739h7.565c.019-.301.057-.661.057-.94zm-7.68-1.061c.211-1.14.998-1.86 2.131-1.86s1.939.721 2.132 1.86h-4.263zM25.511 9.025C24.403 3.407 19.688.119 12.516.119H.377v33.787h3.429V23.239h3.545v-3.138H3.806V3.209h8.618c5.009 0 8.186 1.849 9.377 5.177-.475-.032-.96-.049-1.458-.049H8.203v33.786h3.429V31.456h8.71c8.247 0 13.251-4.344 13.251-11.535 0-5.567-2.967-9.411-8.082-10.896zm-5.262 19.294h-8.618V11.426h8.618c.736 0 1.427.045 2.083.124 0 .052.006.101.006.153 0 5.248-3.355 8.321-9.697 8.392v3.141c7.878-.043 12.753-4.081 13.093-10.782 2.911 1.321 4.43 3.88 4.43 7.468.001 5.308-3.428 8.397-9.915 8.397z"/></svg><svg viewBox="0 0 512 512" id="loupe" xmlns="http://www.w3.org/2000/svg"><path d="M225.474 0C101.151 0 0 101.151 0 225.474c0 124.33 101.151 225.474 225.474 225.474 124.33 0 225.474-101.144 225.474-225.474C450.948 101.151 349.804 0 225.474 0zm0 409.323c-101.373 0-183.848-82.475-183.848-183.848S124.101 41.626 225.474 41.626s183.848 82.475 183.848 183.848-82.475 183.849-183.848 183.849z"/><path d="M505.902 476.472L386.574 357.144c-8.131-8.131-21.299-8.131-29.43 0-8.131 8.124-8.131 21.306 0 29.43l119.328 119.328A20.74 20.74 0 00491.187 512a20.754 20.754 0 0014.715-6.098c8.131-8.124 8.131-21.306 0-29.43z"/></svg><svg fill="none" viewBox="0 0 43 24" id="maestro" xmlns="http://www.w3.org/2000/svg"><path fill="#fff" d="M0 0h42.462v24H0z"/><path d="M24.456 18.534h-7.268V5.471h7.268v13.063z" fill="#6C6BBD"/><path d="M17.653 12.002c0-2.65 1.24-5.01 3.173-6.532a8.307 8.307 0 00-13.44 6.531 8.307 8.307 0 0013.44 6.532 8.294 8.294 0 01-3.173-6.531z" fill="#EB001B"/><path d="M34.258 12.002a8.307 8.307 0 01-13.44 6.531 8.293 8.293 0 003.173-6.531c0-2.65-1.24-5.01-3.174-6.532a8.307 8.307 0 0113.441 6.531z" fill="#0099DF"/></svg><svg fill="none" viewBox="0 0 43 24" id="mastercard" xmlns="http://www.w3.org/2000/svg"><path fill="#fff" d="M0 0h42.462v24H0z"/><path d="M34.007 17.143v-.322h-.084l-.097.221-.096-.221h-.085v.322h.06V16.9l.09.21h.062l.091-.21v.243h.06zm-.533 0v-.267h.108v-.055h-.275v.055h.108v.267h.06z" fill="#F79410"/><path d="M24.457 18.53H17.19V5.467h7.268V18.53z" fill="#FF5F00"/><path d="M17.654 11.997c0-2.65 1.241-5.01 3.173-6.532a8.307 8.307 0 00-13.44 6.531 8.307 8.307 0 0013.44 6.532 8.294 8.294 0 01-3.173-6.531z" fill="#EB001B"/><path d="M34.26 11.997a8.307 8.307 0 01-13.44 6.531 8.293 8.293 0 003.172-6.531c0-2.65-1.24-5.01-3.173-6.532a8.307 8.307 0 0113.441 6.531z" fill="#F79E1B"/></svg><svg viewBox="0 -126 512 512" id="mens-shoes" xmlns="http://www.w3.org/2000/svg"><path d="M511.05 192.828a18.385 18.385 0 00-8.077-9.984c1.425-6.403 2.226-16.106-2.473-25.086-4.934-9.43-14.398-15.582-28.125-18.281-6.121-1.2-12.64-1.84-19.543-2.52-18.816-1.852-42.238-4.156-79.098-18.871-17.507-6.992-36.27-16.07-56.449-27.328a7.635 7.635 0 00-2.84-9.063c-3.324-2.254-7.793-1.523-10.254 1.57a811.566 811.566 0 01-10.023-5.976c1.621-3.36.586-7.484-2.59-9.637-3.355-2.273-7.871-1.511-10.316 1.657-3.551-2.243-7.14-4.536-10.774-6.895l.262-.387a7.636 7.636 0 00-2.043-10.605 7.635 7.635 0 00-10.605 2.039l-.368.543a1487.018 1487.018 0 01-8.457-5.715l.364-.539a7.635 7.635 0 00-2.04-10.605 7.64 7.64 0 00-10.609 2.039l-.281.418a1470.274 1470.274 0 01-22.734-16.247c-.032-.02-.059-.035-.086-.054a.217.217 0 01-.032-.024c-.101-.07-10.015-7.379-10.015-15.64 0-4.219-3.418-7.637-7.637-7.637s-7.637 3.418-7.637 7.637c0 6.992 2.926 14.125 8.457 20.625a48.828 48.828 0 003.547 3.742c-4.512 11.75-19.836 43.34-57.09 53.613a7.64 7.64 0 00-5.332 9.395 7.64 7.64 0 009.395 5.332c19.129-5.278 33.308-15.133 43.683-25.77l102.329 68.192-57.512 66.566c-33.34-8.797-102.008-20.43-152.313-20.879-6.87-7.543-8.273-24.976-3.906-49.64 2.61-14.723 6.68-28.512 9.125-36.133 7.25 1.183 15.137 1.882 23.664 1.882.926 0 1.863-.007 2.801-.023 4.219-.078 7.578-3.555 7.5-7.773a7.605 7.605 0 00-7.773-7.5c-48.891.879-75.2-24.426-75.438-24.66a7.637 7.637 0 00-11.969 1.504c-.484.816-11.945 20.288-18.812 45.902-7.762 28.965-6.403 54.207 3.816 73.933-1.523.66-2.972 1.496-4.289 2.551a18.869 18.869 0 00-7.039 13.68L.027 227.44a18.83 18.83 0 0015.864 19.68c27.27 4.352 96.5 13.547 150.332 4.941 31.687-5.074 47.293-2 67.05 1.887 16.075 3.16 35.286 6.942 67.364 6.942 8.039 0 16.898-.239 26.707-.782 31.695-1.765 61.879-5.886 89.71-12.25 4.114-.937 6.684-5.035 5.747-9.148a7.642 7.642 0 00-9.149-5.742c-26.996 6.172-56.316 10.172-87.156 11.886-47.023 2.61-70.004-1.91-90.273-5.898-20.41-4.016-38.04-7.484-72.41-1.98-17.208 2.75-65.836 7.777-145.512-4.942a3.589 3.589 0 01-3.02-3.758l1.387-25.265A3.542 3.542 0 0118 200.418a3.607 3.607 0 012.883-.738c11.05 1.84 30.406 4.03 59.867 4.03 51.64 0 124.918 12.774 155.828 21.602 29.027 8.297 67.149 11.102 107.328 7.903 49.832-3.969 99.844-16.555 148.637-37.406a2.958 2.958 0 012.379.03c.453.204 1.273.712 1.64 1.821.415 1.238 0 2.59-1.039 3.36-11.355 8.468-30.207 17.066-53.078 24.21a7.64 7.64 0 00-5.011 9.567 7.631 7.631 0 009.566 5.012c24.477-7.645 44.953-17.07 57.652-26.543a18.229 18.229 0 006.399-20.438zM213.169 41.625a1297.538 1297.538 0 0014.984 10.613l-5.09 7.516a7.634 7.634 0 002.04 10.605 7.631 7.631 0 0010.605-2.04l5.02-7.405c2.855 1.941 5.68 3.848 8.464 5.707l-5.023 7.41a7.641 7.641 0 006.316 11.922 7.639 7.639 0 006.332-3.351l5.133-7.579c3.653 2.368 7.238 4.653 10.758 6.872l-5.668 8.37a7.634 7.634 0 002.04 10.606 7.633 7.633 0 0010.605-2.04l6.03-8.897a854.918 854.918 0 009.923 5.918l-5.73 8.457a7.64 7.64 0 002.038 10.609 7.614 7.614 0 004.278 1.312 7.627 7.627 0 006.328-3.351l6.37-9.406c3.114 1.738 6.161 3.41 9.15 5.02l-4.95 24.753a2.472 2.472 0 01-1.512 1.844c-.468.191-1.398.422-2.379-.23L201.121 62.811a113.287 113.287 0 0012.047-21.187zM36.715 81.801c7.347 5.281 19.828 12.66 37.25 17.566-2.598 8.215-6.512 21.813-9.14 36.586-4.028 22.621-3.602 40.11 1.23 52.29-15.426-.427-27.14-1.485-35.625-2.59-24.114-33.579-3.262-84.446 6.285-103.852zm215.87 131.754l54.712-63.325c1.098.211 2.215.329 3.336.329 2.305 0 4.62-.45 6.824-1.36a17.791 17.791 0 0010.645-12.96l4.074-20.387c60.554 30.543 95.078 33.937 119.16 36.308 6.809.668 12.691 1.246 18.094 2.309 8.918 1.75 14.804 5.219 17.504 10.304 3.078 5.813 1.742 12.903.675 16.602-.355.125-.71.238-1.062.387-94.89 40.547-182.379 42.824-233.961 31.793zm0 0"/></svg><svg fill="none" viewBox="0 0 43 24" id="paypal" xmlns="http://www.w3.org/2000/svg"><path fill="#fff" d="M0 0h42.462v24H0z"/><path d="M27.694 7.385h-2.633c-.155 0-.31.155-.387.31L23.59 14.51c0 .155.077.233.232.233h1.394c.155 0 .232-.078.232-.233l.31-1.936c0-.155.155-.31.387-.31h.852c1.782 0 2.788-.851 3.02-2.555.156-.697 0-1.317-.309-1.704-.465-.387-1.162-.62-2.014-.62zm.31 2.556c-.155.93-.852.93-1.549.93h-.464l.31-1.782c0-.077.077-.155.232-.155h.155c.464 0 .929 0 1.161.31.155.077.155.31.155.697z" fill="#139AD6"/><path d="M8.72 7.385H6.087c-.155 0-.31.155-.387.31L4.616 14.51c0 .155.077.232.232.232h1.24c.154 0 .309-.155.386-.31l.31-1.858c0-.155.155-.31.387-.31h.852c1.782 0 2.788-.852 3.02-2.556.155-.697 0-1.316-.31-1.703-.464-.388-1.083-.62-2.013-.62zm.31 2.556c-.155.93-.852.93-1.549.93h-.387l.31-1.782c0-.078.077-.155.232-.155h.155c.465 0 .93 0 1.162.31.077.077.154.31.077.697zM16.697 9.863h-1.24c-.077 0-.232.078-.232.155l-.077.387-.078-.155c-.31-.387-.852-.542-1.471-.542-1.394 0-2.633 1.085-2.866 2.556a2.308 2.308 0 00.465 1.936c.387.465.93.62 1.626.62 1.162 0 1.782-.697 1.782-.697l-.078.387c0 .155.078.232.232.232h1.162c.155 0 .31-.155.387-.31l.697-4.337c-.077-.077-.232-.232-.31-.232zm-1.782 2.478c-.154.697-.697 1.24-1.471 1.24-.387 0-.697-.155-.852-.31-.155-.233-.232-.542-.232-.93a1.418 1.418 0 011.394-1.239c.387 0 .62.155.852.31.232.232.31.62.31.93z" fill="#263B80"/><path d="M35.594 9.864h-1.239c-.077 0-.232.077-.232.154l-.078.388-.077-.155c-.31-.387-.852-.542-1.472-.542-1.394 0-2.633 1.084-2.865 2.556a2.308 2.308 0 00.465 1.936c.387.464.929.62 1.626.62 1.161 0 1.781-.698 1.781-.698l-.077.387c0 .155.077.233.232.233h1.162c.155 0 .31-.155.387-.31l.697-4.337c-.078-.078-.155-.232-.31-.232zm-1.781 2.478c-.155.697-.697 1.24-1.472 1.24-.387 0-.697-.156-.852-.31-.154-.233-.232-.543-.232-.93a1.418 1.418 0 011.394-1.24c.387 0 .62.156.852.31.31.233.387.62.31.93z" fill="#139AD6"/><path d="M23.434 9.864h-1.316c-.155 0-.233.077-.31.155l-1.704 2.633-.774-2.478c-.078-.155-.155-.233-.388-.233h-1.239c-.155 0-.232.155-.232.31l1.394 4.105-1.317 1.858c-.077.155 0 .388.155.388h1.24c.154 0 .232-.078.31-.155l4.259-6.119c.232-.232.077-.464-.078-.464z" fill="#263B80"/><path d="M37.065 7.617l-1.084 6.97c0 .155.077.233.232.233h1.084c.155 0 .31-.155.388-.31l1.084-6.815c0-.155-.078-.232-.233-.232h-1.239c-.077-.078-.155 0-.232.154z" fill="#139AD6"/></svg><svg fill="none" viewBox="0 0 67 18" id="paypal-big" xmlns="http://www.w3.org/2000/svg"><path d="M45.074 0H39.93c-.303 0-.605.303-.756.605l-2.118 13.31c0 .303.151.455.454.455h2.722c.303 0 .454-.152.454-.454l.605-3.782c0-.302.303-.605.756-.605h1.664c3.48 0 5.445-1.663 5.9-4.991.302-1.361 0-2.571-.606-3.328C48.1.454 46.737 0 45.074 0zm.605 4.992c-.303 1.815-1.664 1.815-3.026 1.815h-.907l.605-3.479c0-.151.151-.303.454-.303h.302c.908 0 1.815 0 2.27.605.302.152.302.606.302 1.362z" fill="#139AD6"/><path d="M8.017 0H2.874c-.303 0-.605.303-.756.605L0 13.915c0 .303.151.454.454.454h2.42c.302 0 .605-.302.756-.605l.605-3.63c0-.302.303-.605.756-.605h1.664c3.48 0 5.445-1.664 5.9-4.991.302-1.362 0-2.572-.606-3.328C11.042.454 9.832 0 8.017 0zm.605 4.992c-.303 1.815-1.664 1.815-3.026 1.815H4.84l.605-3.48c0-.15.151-.302.454-.302H6.2c.908 0 1.816 0 2.27.605.15.151.302.605.15 1.362zM23.595 4.84h-2.42c-.152 0-.454.151-.454.302l-.152.757-.15-.303c-.606-.756-1.665-1.059-2.875-1.059-2.722 0-5.142 2.118-5.596 4.992-.303 1.512.151 2.874.907 3.781.757.908 1.816 1.21 3.177 1.21 2.269 0 3.479-1.361 3.479-1.361l-.152.756c0 .303.152.454.454.454h2.269c.302 0 .605-.303.756-.605l1.361-8.47c-.15-.152-.453-.454-.605-.454zm-3.48 4.84c-.302 1.361-1.36 2.42-2.873 2.42-.757 0-1.362-.302-1.664-.605-.303-.454-.454-1.059-.454-1.815.151-1.361 1.361-2.42 2.723-2.42.756 0 1.21.302 1.664.605.453.454.605 1.21.605 1.815z" fill="#263B80"/><path d="M60.502 4.84h-2.42c-.151 0-.454.152-.454.303l-.151.757-.151-.303c-.605-.756-1.664-1.059-2.874-1.059-2.723 0-5.143 2.118-5.597 4.992-.302 1.512.152 2.873.908 3.781.756.908 1.815 1.21 3.176 1.21 2.27 0 3.48-1.361 3.48-1.361l-.152.756c0 .303.151.454.454.454h2.269c.302 0 .605-.303.756-.605l1.361-8.47c-.151-.152-.302-.454-.605-.454zm-3.479 4.84c-.302 1.362-1.361 2.421-2.874 2.421-.756 0-1.36-.303-1.663-.605-.303-.454-.454-1.059-.454-1.815.151-1.361 1.361-2.42 2.722-2.42.757 0 1.21.302 1.664.605.605.454.757 1.21.605 1.815z" fill="#139AD6"/><path d="M36.754 4.841h-2.572c-.302 0-.454.151-.605.302l-3.327 5.143-1.513-4.84c-.151-.303-.302-.454-.756-.454h-2.42c-.303 0-.454.303-.454.605l2.723 8.017-2.572 3.63c-.151.302 0 .756.303.756h2.42c.302 0 .453-.151.605-.302l8.319-11.95c.453-.453.151-.907-.151-.907z" fill="#263B80"/><path d="M63.375.454l-2.118 13.613c0 .302.151.454.454.454h2.117c.303 0 .605-.303.757-.606L66.702.605c0-.302-.151-.454-.454-.454h-2.42c-.15-.151-.302 0-.453.303z" fill="#139AD6"/></svg><svg aria-hidden="true" data-prefix="fas" data-icon="user" class="aysvg-inline--fa ayfa-user ayfa-w-14" viewBox="0 0 448 512" id="person" xmlns="http://www.w3.org/2000/svg"><path fill="currentColor" d="M224 256c70.7 0 128-57.3 128-128S294.7 0 224 0 96 57.3 96 128s57.3 128 128 128zm89.6 32h-16.7c-22.2 10.2-46.9 16-72.9 16s-50.6-5.8-72.9-16h-16.7C60.2 288 0 348.2 0 422.4V464c0 26.5 21.5 48 48 48h352c26.5 0 48-21.5 48-48v-41.6c0-74.2-60.2-134.4-134.4-134.4z"/></svg><svg fill="none" viewBox="0 0 20 20" id="reply" xmlns="http://www.w3.org/2000/svg"><path d="M13.375 7.75L19 13.375m0 0L13.375 19M19 13.375H5.5a4.5 4.5 0 01-4.5-4.5V1" stroke="#1F1F1F" stroke-width="1.3" stroke-linecap="round" stroke-linejoin="round"/></svg><svg fill="none" viewBox="0 0 18 20" id="returns" xmlns="http://www.w3.org/2000/svg"><path d="M13.167.833L16.5 4.167m0 0L13.167 7.5M16.5 4.167H4.833A3.333 3.333 0 001.5 7.5v1.667m3.333 10L1.5 15.833m0 0L4.833 12.5M1.5 15.833h11.667A3.333 3.333 0 0016.5 12.5v-1.667" stroke="#FF6F61" stroke-width="1.5" stroke-linecap="round" stroke-linejoin="round"/></svg><svg viewBox="0 0 512 512" id="ru" xmlns="http://www.w3.org/2000/svg"><circle cx="256" cy="256" r="256" fill="#f0f0f0"/><path d="M496.077 345.043C506.368 317.31 512 287.314 512 256s-5.632-61.31-15.923-89.043H15.923C5.633 194.69 0 224.686 0 256s5.633 61.31 15.923 89.043L256 367.304l240.077-22.261z" fill="#0052b4"/><path d="M256 512c110.071 0 203.906-69.472 240.077-166.957H15.923C52.094 442.528 145.929 512 256 512z" fill="#d80027"/></svg><svg viewBox="0 0 192.756 192.756" id="schwarzkopf" xmlns="http://www.w3.org/2000/svg"><g fill-rule="evenodd" clip-rule="evenodd"><path fill="#fff" d="M0 0h192.756v192.756H0V0z"/><path d="M83.101 56.053l.404.524-.726 2.099-.485 1.453.162.605.323.444.202.727-.485 1.331-.726 1.251c-1.25 2.26-1.897 3.632-1.897 4.076 0 .525.404.929 1.17 1.13.928.202 1.413.524 1.413.968l-.524 1.332.242.606.202.202v.202l-.081.04-.041.162-.161.525.202.564.364.323.161.726v.202l-.121.848-.04.605c0 1.13 1.25 1.655 3.793 1.655 1.654 0 2.704.202 3.188.524.524.403.767 1.17.767 2.38 0 3.632-1.493 7.426-4.479 11.501-1.05 1.574-1.574 2.462-1.574 2.906 0 .283.121.404.404.404 1.574 0 4.197-1.332 7.829-3.996 4.923-3.632 9.242-5.73 12.833-6.295.887-.121 1.332-.363 1.332-.767 0-.525-.324-1.735-1.051-3.511-.846-2.22-1.25-4.076-1.25-5.528 0-.969.08-1.574.242-1.816.201-.363.807-.686 1.654-1.089 1.252-.565 2.059-1.251 2.461-1.978l1.373-2.099c1.332-1.493 1.977-3.229 1.977-5.004v-1.251l.203-1.775.242-.969.281-2.26-.201-1.654-.283-.767-.322-1.776c-.322-3.107-1.977-5.367-4.924-6.618-.727-.323-1.371-.646-1.936-1.049-1.293-1.009-2.826-1.574-4.521-1.574l-1.049.081-3.309-.525-1.977-.202-2.704.524-2.018.404c-1.13.121-2.502.645-4.157 1.573l-2.502 1.897-.404.525-.605.645c-.726.727-1.13 1.615-1.13 2.704-.001 1.858.726 3.109 2.259 3.835zm-72.72 56.074c-2.018 0-3.793.605-5.166 1.775-1.413 1.211-2.139 2.664-2.139 4.359 0 2.299 1.775 4.398 5.407 6.254l1.897 1.01 3.309 2.098c.525.605.807 1.291.807 2.219 0 1.131-.484 2.141-1.332 2.986-.928.768-2.058 1.172-3.35 1.172-3.228 0-5.408-1.695-6.457-5.086h-.401l-.122 5.045c2.543 1.373 4.924 2.018 7.103 2.018 2.301 0 4.238-.727 5.812-2.098 1.493-1.373 2.3-3.148 2.3-5.207 0-1.533-.403-2.703-1.21-3.672-.727-1.008-2.139-1.977-4.197-2.986l-2.099-.969c-2.583-1.25-3.915-2.582-3.915-3.914 0-.969.364-1.816 1.09-2.422.686-.645 1.614-1.008 2.744-1.008 2.179 0 4.076 1.332 5.65 4.035h.282l.041-4.156c-2.341-.969-4.399-1.453-6.054-1.453zm23.083 9.16v-3.551c-1.533-.605-3.027-.928-4.601-.928-2.704 0-4.883.928-6.537 2.703-1.736 1.775-2.583 4.035-2.583 6.779 0 2.826.807 5.125 2.381 6.941 1.574 1.775 3.632 2.705 6.174 2.705 1.856 0 3.591-.605 5.206-1.736l.484-2.502-.121-.08c-1.412 1.533-2.945 2.34-4.56 2.34-1.695 0-3.107-.727-4.076-2.26-1.009-1.453-1.533-3.43-1.533-6.014 0-2.219.484-3.994 1.453-5.326 1.009-1.371 2.3-2.018 3.955-2.018 1.776 0 3.147.969 4.076 2.945h.282v.002zm1.453-18.037c.565.605.929 1.773.929 3.43v25.223c0 1.773-.364 2.945-1.09 3.551v.08h6.013v-.08c-.726-.646-1.049-1.857-1.049-3.471v-7.346c0-3.793 1.493-5.73 4.479-5.73 1.453 0 2.421.404 3.027 1.211.525.848.807 2.342.807 4.52v10.896h4.843v-.08c-.727-.605-1.09-1.777-1.09-3.471v-7.668c-.081-5.004-2.139-7.506-6.134-7.506-2.099 0-4.076.848-5.933 2.502v-16.184h-4.802v.123zm33.656 14.043h-1.978l-4.358 13.559-3.35-11.258-.121-.93c0-.523.242-1.008.727-1.332v-.119h-6.215v.119c.928.605 1.896 2.584 2.906 6.055l3.632 12.146h2.825l3.955-12.268 3.632 12.268h2.744l4.802-14.77c.606-1.775 1.534-2.906 2.785-3.35v-.121H75.03v.121c.848.201 1.251.766 1.251 1.654l-.605 2.422-3.107 9.361-3.996-13.557zm44.392 1.775l3.227-.08-10.047 16.545h14.729l.445-4.277h-.203c-.645 1.049-1.291 1.695-1.936 2.018l-3.189.525h-4.479l9.967-16.467h-12.711l-.686 3.754h.201c.807-1.373 2.381-2.018 4.682-2.018zm9.926-15.818c.688.605 1.01 1.773 1.01 3.43v25.223c0 1.773-.402 2.945-1.131 3.551v.08h6.014v-.08c-.727-.646-1.049-1.857-1.049-3.471v-6.457l7.506 10.008h5.205v-.08l-9.281-11.785 7.344-6.336v-.119h-5.971v.119c.402.121.605.484.605 1.01 0 1.049-1.414 2.744-4.117 5.045l-1.291 1.129v-21.389h-4.844v.122zm65.416 3.631c-2.301 0-3.873.646-4.842 2.018-1.01 1.332-1.453 3.551-1.453 6.779v1.654h-1.252l-.604 1.736 1.855-.08v12.793c0 1.775-.322 2.945-1.049 3.672v.08h5.932v-.08c-.727-.605-1.09-1.777-1.09-3.471l-.039-12.994h2.945l.322-1.656h-3.229v-5.77c0-2.059.686-3.107 1.938-3.107.646 0 1.17.322 1.574.969h.08l.525-2.342-1.613-.201zm-91.08 10.451c.604.605.928 1.775.928 3.512v11.059c0 1.773-.324 2.945-1.049 3.551v.08h5.932v-.08c-.727-.646-1.09-1.857-1.09-3.471v-8.838c0-2.18.928-3.311 2.865-3.311.848 0 1.492.324 1.938 1.01h.16l.242-3.834c-2.018.121-3.752.969-5.205 2.623v-2.42h-4.721v.119zm-10.696 1.01c1.937 0 2.865.889 2.865 2.824 0 1.494-1.453 2.826-4.278 4.076-2.34 1.01-3.954 1.857-4.842 2.703-.847.848-1.251 1.896-1.251 3.311 0 1.291.484 2.42 1.332 3.268.928.85 2.059 1.252 3.43 1.252 1.897 0 3.834-.768 5.811-2.301v2.059h4.722v-.08c-.727-.605-1.049-1.777-1.049-3.551l-.081-8.637c0-2.381-.363-4.035-1.251-5.004-.847-.969-2.3-1.453-4.318-1.453-1.654 0-3.511.484-5.569 1.371l-.646 3.311h.403c1.373-2.1 2.947-3.149 4.722-3.149zm3.067 6.053v5.246c0 2.705-1.251 4.035-3.712 4.035-.847 0-1.493-.322-2.099-.928-.605-.605-.847-1.332-.847-2.178 0-.93.242-1.695.767-2.301.605-.605 1.574-1.332 3.107-2.1l2.784-1.774z"/><path d="M156.305 119.432c-1.855-1.896-4.076-2.824-6.779-2.824-2.824 0-5.205.928-7.102 2.824-1.938 1.855-2.826 4.156-2.826 6.941 0 2.703.889 5.043 2.826 6.98 1.896 1.896 4.197 2.826 6.98 2.826 2.744 0 5.045-.93 6.9-2.826 1.857-1.938 2.785-4.236 2.785-6.98.001-2.705-.927-5.004-2.784-6.941zm-7.182-1.252c1.734 0 3.105.809 4.156 2.463 1.008 1.654 1.533 3.873 1.533 6.576 0 2.301-.484 4.076-1.412 5.408-.928 1.373-2.18 2.018-3.754 2.018-1.695 0-3.066-.846-4.197-2.502-1.129-1.613-1.654-3.793-1.654-6.457 0-2.219.525-4.074 1.533-5.447.969-1.372 2.221-2.059 3.795-2.059zm27.481 1.05c-1.451-1.615-3.309-2.422-5.527-2.422-2.381 0-4.277.928-5.689 2.703v-2.299h-4.803v.119c.686.605 1.008 1.775 1.008 3.512v24.293c0 1.695-.322 2.906-1.049 3.553v.119h5.932v-.119c-.727-.605-1.088-1.775-1.088-3.471v-10.492a7.567 7.567 0 004.156 1.211c2.582 0 4.68-1.01 6.457-3.068 1.775-2.018 2.703-4.479 2.703-7.344-.001-2.584-.727-4.64-2.1-6.295zm-7.102-.445c1.574 0 2.824.727 3.793 2.1.928 1.453 1.412 3.389 1.412 5.689 0 2.34-.484 4.277-1.453 5.73-1.008 1.371-2.26 2.098-3.914 2.098-2.541 0-3.873-1.371-3.953-4.236v-5.973c0-3.632 1.412-5.408 4.115-5.408z"/></g></svg><svg fill="none" viewBox="0 0 18 18" id="search" xmlns="http://www.w3.org/2000/svg"><path d="M17 17l-3.867-3.867m2.09-5.022A7.111 7.111 0 111 8.111a7.111 7.111 0 0114.222 0z" stroke="#111" stroke-width="1.5" stroke-linecap="round" stroke-linejoin="round"/></svg><svg fill="none" viewBox="0 0 18 20" id="secure" xmlns="http://www.w3.org/2000/svg"><path d="M4.6 9.1V5.5a4.5 4.5 0 019 0v3.6m-10.8 0h12.6a1.8 1.8 0 011.8 1.8v6.3a1.8 1.8 0 01-1.8 1.8H2.8A1.8 1.8 0 011 17.2v-6.3a1.8 1.8 0 011.8-1.8z" stroke="#FF6F61" stroke-width="1.5" stroke-linecap="round" stroke-linejoin="round"/></svg><svg viewBox="0 0 512 512" id="shirt" xmlns="http://www.w3.org/2000/svg"><path d="M419.692 80.205l-55.5-23.125-47.07-39.226A8 8 0 00312 16H200a8 8 0 00-5.122 1.854L147.807 57.08l-55.5 23.125A71.811 71.811 0 0048 146.667V288a8 8 0 008 8h56v168a8 8 0 004.422 7.155C118.451 472.17 167.133 496 256 496s137.549-23.83 139.578-24.845A8 8 0 00400 464V296h56a8 8 0 008-8V146.667a71.811 71.811 0 00-44.308-66.462zM256 68.686L219.314 32h73.372zm-10.823 11.8l-29.715 35.657-51.611-51.606 35.658-29.714zm67.314-45.668l35.658 29.714-51.611 51.611-29.715-35.652zM64 280v-16h48v16zm64-96a8 8 0 00-16 0v64H64V146.667a55.851 55.851 0 0134.462-51.692l51.67-21.529 60.211 60.211A8 8 0 00216 136c.12 0 .241 0 .362-.008a8 8 0 005.784-2.871L248 102.1v377.823c-65.4-1.127-106.953-15.794-120-21.145zm272 96v-16h48v16zm48-32h-48v-64a8 8 0 00-16 0v274.777c-13.06 5.357-54.614 20.019-120 21.146V102.1l25.854 31.025a8 8 0 005.784 2.871c.121.005.241.008.362.008a8 8 0 005.657-2.343l60.211-60.211 51.67 21.529A55.851 55.851 0 01448 146.667z"/><circle cx="288" cy="176" r="8"/><circle cx="288" cy="256" r="8"/><circle cx="288" cy="336" r="8"/><circle cx="288" cy="416" r="8"/></svg><svg viewBox="0 0 484.33 484.33" id="skirt" xmlns="http://www.w3.org/2000/svg"><path d="M371.665 122.781V57.962h-260v67.055L0 376.834l5.672 4.842c2.138 1.825 54.447 44.692 236.484 44.692 182.045 0 234.362-42.867 236.501-44.692l5.673-4.842-112.665-254.053zm-240-44.819h220v37.171h-220V77.962zm287.91 308.388c-56.329 16.545-127.572 20.018-177.41 20.018-49.846 0-121.088-3.473-177.414-20.017-20.623-6.058-33.276-12.156-40.003-15.988l104.31-235.23h46.058l-23.207 103.038 19.512 4.395 24.196-107.433h92.097l24.195 107.433 19.512-4.395-23.206-103.038h47.049l104.318 235.23c-6.729 3.831-19.383 9.93-40.007 15.987z"/></svg><svg fill="none" viewBox="0 0 20 20" id="styles" xmlns="http://www.w3.org/2000/svg"><path d="M18.454 11.716l-6.732 6.733a1.877 1.877 0 01-2.657 0L1 10.391V1h9.389l8.065 8.067a1.879 1.879 0 010 2.649v0z" stroke="#FF6F61" stroke-width="1.5" stroke-linecap="round" stroke-linejoin="round"/></svg><svg aria-hidden="true" data-prefix="far" data-icon="thumbs-down" class="bisvg-inline--fa bifa-thumbs-down bifa-w-16" viewBox="0 0 512 512" id="thumbs-down" xmlns="http://www.w3.org/2000/svg"><path fill="currentColor" d="M466.27 225.31c4.674-22.647.864-44.538-8.99-62.99 2.958-23.868-4.021-48.565-17.34-66.99C438.986 39.423 404.117 0 327 0c-7 0-15 .01-22.22.01C201.195.01 168.997 40 128 40h-10.845c-5.64-4.975-13.042-8-21.155-8H32C14.327 32 0 46.327 0 64v240c0 17.673 14.327 32 32 32h64c11.842 0 22.175-6.438 27.708-16h7.052c19.146 16.953 46.013 60.653 68.76 83.4 13.667 13.667 10.153 108.6 71.76 108.6 57.58 0 95.27-31.936 95.27-104.73 0-18.41-3.93-33.73-8.85-46.54h36.48c48.602 0 85.82-41.565 85.82-85.58 0-19.15-4.96-34.99-13.73-49.84zM64 296c-13.255 0-24-10.745-24-24s10.745-24 24-24 24 10.745 24 24-10.745 24-24 24zm330.18 16.73H290.19c0 37.82 28.36 55.37 28.36 94.54 0 23.75 0 56.73-47.27 56.73-18.91-18.91-9.46-66.18-37.82-94.54C206.9 342.89 167.28 272 138.92 272H128V85.83c53.611 0 100.001-37.82 171.64-37.82h37.82c35.512 0 60.82 17.12 53.12 65.9 15.2 8.16 26.5 36.44 13.94 57.57 21.581 20.384 18.699 51.065 5.21 65.62 9.45 0 22.36 18.91 22.27 37.81-.09 18.91-16.71 37.82-37.82 37.82z"/></svg><svg aria-hidden="true" data-prefix="fas" data-icon="thumbs-down" class="bjsvg-inline--fa bjfa-thumbs-down bjfa-w-16" viewBox="0 0 512 512" id="thumbs-down-solid" xmlns="http://www.w3.org/2000/svg"><path fill="currentColor" d="M0 56v240c0 13.255 10.745 24 24 24h80c13.255 0 24-10.745 24-24V56c0-13.255-10.745-24-24-24H24C10.745 32 0 42.745 0 56zm40 200c0-13.255 10.745-24 24-24s24 10.745 24 24-10.745 24-24 24-24-10.745-24-24zm272 256c-20.183 0-29.485-39.293-33.931-57.795-5.206-21.666-10.589-44.07-25.393-58.902-32.469-32.524-49.503-73.967-89.117-113.111a11.98 11.98 0 01-3.558-8.521V59.901c0-6.541 5.243-11.878 11.783-11.998 15.831-.29 36.694-9.079 52.651-16.178C256.189 17.598 295.709.017 343.995 0h2.844c42.777 0 93.363.413 113.774 29.737 8.392 12.057 10.446 27.034 6.148 44.632 16.312 17.053 25.063 48.863 16.382 74.757 17.544 23.432 19.143 56.132 9.308 79.469l.11.11c11.893 11.949 19.523 31.259 19.439 49.197-.156 30.352-26.157 58.098-59.553 58.098H350.723C358.03 364.34 384 388.132 384 430.548 384 504 336 512 312 512z"/></svg><svg aria-hidden="true" data-prefix="far" data-icon="thumbs-up" class="bksvg-inline--fa bkfa-thumbs-up bkfa-w-16" viewBox="0 0 512 512" id="thumbs-up" xmlns="http://www.w3.org/2000/svg"><path fill="currentColor" d="M466.27 286.69C475.04 271.84 480 256 480 236.85c0-44.015-37.218-85.58-85.82-85.58H357.7c4.92-12.81 8.85-28.13 8.85-46.54C366.55 31.936 328.86 0 271.28 0c-61.607 0-58.093 94.933-71.76 108.6-22.747 22.747-49.615 66.447-68.76 83.4H32c-17.673 0-32 14.327-32 32v240c0 17.673 14.327 32 32 32h64c14.893 0 27.408-10.174 30.978-23.95 44.509 1.001 75.06 39.94 177.802 39.94 7.22 0 15.22.01 22.22.01 77.117 0 111.986-39.423 112.94-95.33 13.319-18.425 20.299-43.122 17.34-66.99 9.854-18.452 13.664-40.343 8.99-62.99zm-61.75 53.83c12.56 21.13 1.26 49.41-13.94 57.57 7.7 48.78-17.608 65.9-53.12 65.9h-37.82c-71.639 0-118.029-37.82-171.64-37.82V240h10.92c28.36 0 67.98-70.89 94.54-97.46 28.36-28.36 18.91-75.63 37.82-94.54 47.27 0 47.27 32.98 47.27 56.73 0 39.17-28.36 56.72-28.36 94.54h103.99c21.11 0 37.73 18.91 37.82 37.82.09 18.9-12.82 37.81-22.27 37.81 13.489 14.555 16.371 45.236-5.21 65.62zM88 432c0 13.255-10.745 24-24 24s-24-10.745-24-24 10.745-24 24-24 24 10.745 24 24z"/></svg><svg aria-hidden="true" data-prefix="fas" data-icon="thumbs-up" class="blsvg-inline--fa blfa-thumbs-up blfa-w-16" viewBox="0 0 512 512" id="thumbs-up-solid" xmlns="http://www.w3.org/2000/svg"><path fill="currentColor" d="M104 224H24c-13.255 0-24 10.745-24 24v240c0 13.255 10.745 24 24 24h80c13.255 0 24-10.745 24-24V248c0-13.255-10.745-24-24-24zM64 472c-13.255 0-24-10.745-24-24s10.745-24 24-24 24 10.745 24 24-10.745 24-24 24zM384 81.452c0 42.416-25.97 66.208-33.277 94.548h101.723c33.397 0 59.397 27.746 59.553 58.098.084 17.938-7.546 37.249-19.439 49.197l-.11.11c9.836 23.337 8.237 56.037-9.308 79.469 8.681 25.895-.069 57.704-16.382 74.757 4.298 17.598 2.244 32.575-6.148 44.632C440.202 511.587 389.616 512 346.839 512l-2.845-.001c-48.287-.017-87.806-17.598-119.56-31.725-15.957-7.099-36.821-15.887-52.651-16.178-6.54-.12-11.783-5.457-11.783-11.998v-213.77c0-3.2 1.282-6.271 3.558-8.521 39.614-39.144 56.648-80.587 89.117-113.111 14.804-14.832 20.188-37.236 25.393-58.902C282.515 39.293 291.817 0 312 0c24 0 72 8 72 81.452z"/></svg><svg fill="none" viewBox="0 0 17 14" id="truck" xmlns="http://www.w3.org/2000/svg"><path d="M11.227 9.667V1H1v8.667h10.227zm0 0H16V6.333l-2.046-2h-2.727v5.334zm-5.454 1.666c0 .92-.763 1.667-1.705 1.667-.941 0-1.704-.746-1.704-1.667 0-.92.763-1.666 1.704-1.666.942 0 1.705.746 1.705 1.666zm8.863 0c0 .92-.763 1.667-1.704 1.667-.942 0-1.705-.746-1.705-1.667 0-.92.763-1.666 1.705-1.666.941 0 1.704.746 1.704 1.666z" stroke="#111" stroke-width="1.1" stroke-linecap="round" stroke-linejoin="round"/></svg><svg fill="none" viewBox="0 0 24 20" id="truck2" xmlns="http://www.w3.org/2000/svg"><path d="M16 14V1H1v13h15zm0 0h7V9l-3-3h-4v8zm-8 2.5a2.5 2.5 0 11-5 0 2.5 2.5 0 015 0zm13 0a2.5 2.5 0 11-5 0 2.5 2.5 0 015 0z" stroke="#FF6F61" stroke-width="1.5" stroke-linecap="round" stroke-linejoin="round"/></svg><svg viewBox="0 0 512 512" id="ua" xmlns="http://www.w3.org/2000/svg"><circle cx="256" cy="256" r="256" fill="#ffda44"/><path d="M0 256C0 114.616 114.616 0 256 0s256 114.616 256 256" fill="#338af3"/></svg><svg fill="none" viewBox="0 0 14 14" id="usa" xmlns="http://www.w3.org/2000/svg"><path d="M7 14A7 7 0 107 0a7 7 0 000 14z" fill="#F5F5F5"/><path d="M6.696 7H14c0-.632-.084-1.244-.241-1.826H6.696V7zM6.696 3.348h6.277a7.037 7.037 0 00-1.616-1.826H6.697v1.826zM7 14a6.97 6.97 0 004.357-1.522H2.643A6.97 6.97 0 007 14zM1.027 10.652h11.946c.344-.561.61-1.175.786-1.826H.24a6.96 6.96 0 00.786 1.826z" fill="#D80027"/><path d="M3.243 1.093h.637l-.593.431.227.698-.594-.431-.593.43.196-.602c-.523.435-.98.945-1.358 1.513h.205l-.378.275a6.985 6.985 0 00-.17.299l.18.555-.336-.245c-.083.178-.16.359-.229.544l.2.611h.733l-.594.431.227.698-.593-.431-.356.258A7.068 7.068 0 000 7h7V0a6.967 6.967 0 00-3.757 1.093zm.27 5.207l-.593-.431-.593.431.227-.698-.594-.43h.734l.226-.698.227.697h.733l-.593.431.227.698zm-.226-2.737l.227.698-.594-.431-.593.43.227-.697-.594-.43h.734l.226-.698.227.697h.733l-.593.431zM6.025 6.3l-.594-.431-.593.431.227-.698-.594-.43h.734l.226-.698.227.697h.733l-.593.431.227.698zm-.227-2.737l.227.698-.594-.431-.593.43.227-.697-.594-.43h.734l.226-.698.227.697h.733l-.593.431zm0-2.039l.227.698-.594-.431-.593.43.227-.697-.594-.43h.734L5.43.395l.227.697h.733l-.593.431z" fill="#0052B4"/></svg><svg fill="none" viewBox="0 0 17 19" id="user" xmlns="http://www.w3.org/2000/svg"><path d="M16 18v-1.889a3.792 3.792 0 00-1.098-2.671 3.736 3.736 0 00-2.652-1.107h-7.5c-.995 0-1.948.398-2.652 1.107A3.792 3.792 0 001 16.11V18M12.25 4.778c0 2.086-1.679 3.778-3.75 3.778-2.071 0-3.75-1.692-3.75-3.778C4.75 2.69 6.429 1 8.5 1c2.071 0 3.75 1.691 3.75 3.778z" stroke="#111" stroke-width="1.5" stroke-linecap="round" stroke-linejoin="round"/></svg><svg viewBox="0 0 511.999 511.999" id="view" xmlns="http://www.w3.org/2000/svg"><path d="M508.745 246.041c-4.574-6.257-113.557-153.206-252.748-153.206S7.818 239.784 3.249 246.035a16.896 16.896 0 000 19.923c4.569 6.257 113.557 153.206 252.748 153.206s248.174-146.95 252.748-153.201a16.875 16.875 0 000-19.922zM255.997 385.406c-102.529 0-191.33-97.533-217.617-129.418 26.253-31.913 114.868-129.395 217.617-129.395 102.524 0 191.319 97.516 217.617 129.418-26.253 31.912-114.868 129.395-217.617 129.395z"/><path d="M255.997 154.725c-55.842 0-101.275 45.433-101.275 101.275s45.433 101.275 101.275 101.275S357.272 311.842 357.272 256s-45.433-101.275-101.275-101.275zm0 168.791c-37.23 0-67.516-30.287-67.516-67.516s30.287-67.516 67.516-67.516 67.516 30.287 67.516 67.516-30.286 67.516-67.516 67.516z"/></svg><svg fill="none" viewBox="0 0 43 24" id="visa" xmlns="http://www.w3.org/2000/svg"><path fill="#fff" d="M.001 0h42.462v24H.001z"/><path d="M0 21.23h42.462V24H0v-2.77z" fill="#F7B600"/><path d="M0 2.77h42.462V0H0v2.77zM20.63 7.548l-1.912 8.938h-2.312l1.912-8.938h2.312zm9.728 5.772l1.217-3.357.7 3.357h-1.917zm2.58 3.166h2.139l-1.868-8.938h-1.973c-.444 0-.819.258-.984.656l-3.47 8.282h2.428l.482-1.335h2.967l.28 1.335zm-6.036-2.918c.01-2.359-3.26-2.49-3.239-3.543.008-.32.313-.662.98-.749.332-.043 1.246-.077 2.281.4l.405-1.896a6.234 6.234 0 00-2.162-.395c-2.286 0-3.894 1.214-3.907 2.954-.015 1.287 1.148 2.005 2.023 2.433.902.438 1.204.72 1.2 1.11-.006.6-.72.866-1.383.876-1.163.018-1.837-.315-2.375-.565l-.42 1.96c.542.247 1.539.462 2.571.474 2.43 0 4.02-1.2 4.026-3.059zm-9.576-6.02l-3.747 8.938h-2.444L9.292 9.353c-.112-.438-.21-.6-.55-.785-.556-.302-1.474-.585-2.28-.76l.054-.26h3.935c.5 0 .952.334 1.066.911l.974 5.173 2.406-6.084h2.429z" fill="#1A1F71"/></svg><svg viewBox="1 -52 511.999 511" id="womens-shoes" xmlns="http://www.w3.org/2000/svg"><path d="M441.996 367.86c5.52 0 10-4.481 10-10 0-5.524-4.48-10.005-10-10.005-5.523 0-10.004 4.48-10.004 10.004 0 5.52 4.48 10 10.004 10zm0 0"/><path d="M2.387 148.18c2.308 11.36 6.226 22.047 11.648 31.765 17.649 31.653 25.93 64.614 25.93 94.477v123.441c0 5.52 4.476 10 10 10h40.004c5.52 0 10-4.48 10-10v-111.57c0-22.543 5.195-45.168 15.035-65.461l.914-1.473c47.352 39.414 85.258 89.653 110.004 145.914 11.375 25.872 36.61 42.59 64.281 42.59h81.785c39.489 0 70.524-.816 93.63-4.793C477.09 401.094 512 395.09 512 367.86c0-15.4-12.758-37.758-32.504-56.962-13.258-12.902-41.18-35.375-79.16-40.96a10.009 10.009 0 00-8.156 2.468c-9.914 8.95-29.344 15.446-46.192 15.446-23.949 0-49.308-13.672-58.984-31.801-.192-.356-.402-.7-.633-1.031l-66.758-95.247A771.681 771.681 0 0073.016 2.727a9.995 9.995 0 00-12.524-.047C44.882 15.12 31.86 30.004 21.782 46.914 2.343 79.543-3.915 116.75 2.323 147.88c.02.101.04.203.063.3zm77.578 138.113v101.566h-20V274.422c0-3.008-.098-6.25-.285-9.625-3.043-54.82-26.867-91.016-31.344-100.871a399.59 399.59 0 0171.793 42.949c-10.797 17.477-20.164 48.137-20.164 79.418zm-41-229.14c7.484-12.56 16.832-23.852 27.851-33.657a751.638 751.638 0 01136.422 147.758l66.422 94.773c13.297 24.274 45.274 41.828 76.328 41.828 19.696 0 41.758-7.011 55.696-17.41 30.273 5.762 52.851 24.07 63.867 34.79 17.363 16.89 26.445 34.226 26.445 42.624 0 8.575-16.187 13.16-29.773 15.5-21.707 3.735-51.774 4.5-90.235 4.5h-81.785c-19.742 0-37.789-12.023-45.973-30.636-43.304-98.457-123.34-176.895-223.171-218.336-3.63-24.61 1.84-54.762 17.906-81.735zm0 0"/><path d="M289.984 367.86h112.008c5.524 0 10-4.481 10-10 0-5.524-4.476-10.005-10-10.005H289.984c-5.523 0-10.004 4.48-10.004 10.004 0 5.52 4.48 10 10.004 10zm0 0"/></svg></svg>